<svg xmlns="http://www.w3.org/2000/svg" xmlns:xlink="http://www.w3.org/1999/xlink" width="500" zoomAndPan="magnify" viewBox="0 0 375 374.999991" height="500" preserveAspectRatio="xMidYMid meet" version="1.0"><defs><g/><clipPath id="5ee296de58"><path d="M 187.5 0 C 83.945312 0 0 83.945312 0 187.5 C 0 291.054688 83.945312 375 187.5 375 C 291.054688 375 375 291.054688 375 187.5 C 375 83.945312 291.054688 0 187.5 0 Z M 187.5 0 " clip-rule="nonzero"/></clipPath><clipPath id="18fe056c9f"><path d="M 0 0 L 375 0 L 375 375 L 0 375 Z M 0 0 " clip-rule="nonzero"/></clipPath><clipPath id="743a6ca9c2"><path d="M 187.5 0 C 83.945312 0 0 83.945312 0 187.5 C 0 291.054688 83.945312 375 187.5 375 C 291.054688 375 375 291.054688 375 187.5 C 375 83.945312 291.054688 0 187.5 0 Z M 187.5 0 " clip-rule="nonzero"/></clipPath><clipPath id="4d3018b30d"><rect x="0" width="375" y="0" height="375"/></clipPath><clipPath id="4472faad4b"><path d="M 206 69.519531 L 264 69.519531 L 264 108 L 206 108 Z M 206 69.519531 " clip-rule="nonzero"/></clipPath><clipPath id="9a5da92227"><path d="M 69.519531 117 L 305.769531 117 L 305.769531 305.769531 L 69.519531 305.769531 Z M 69.519531 117 " clip-rule="nonzero"/></clipPath><clipPath id="495107a5c7"><path d="M 49 7 L 58 7 L 58 19.679688 L 49 19.679688 Z M 49 7 " clip-rule="nonzero"/></clipPath><clipPath id="51a5fe450a"><rect x="0" width="59" y="0" height="20"/></clipPath></defs><g clip-path="url(#5ee296de58)"><g transform="matrix(1, 0, 0, 1, 0, 0)"><g clip-path="url(#4d3018b30d)"><g clip-path="url(#18fe056c9f)"><g clip-path="url(#743a6ca9c2)"><rect x="-82.5" width="540" fill="#ffffff" height="539.999987" y="-82.499998" fill-opacity="1"/></g></g></g></g></g><g clip-path="url(#4472faad4b)"><path fill="#000000" d="M 234.800781 107.714844 C 233.402344 107.714844 232.074219 107.09375 231.175781 106.019531 L 207.597656 77.726562 C 206.425781 76.320312 206.171875 74.363281 206.949219 72.707031 C 207.730469 71.054688 209.394531 69.992188 211.222656 69.992188 L 258.378906 69.992188 C 260.207031 69.992188 261.875 71.054688 262.648438 72.707031 C 263.425781 74.367188 263.171875 76.324219 262 77.726562 L 238.421875 106.019531 C 237.527344 107.09375 236.203125 107.714844 234.800781 107.714844 Z M 234.800781 107.714844 " fill-opacity="1" fill-rule="nonzero"/></g><path fill="#000000" d="M 168.78125 107.714844 L 121.628906 107.714844 C 119.796875 107.714844 118.132812 106.65625 117.355469 105 C 116.582031 103.34375 116.832031 101.386719 118.003906 99.984375 L 141.582031 71.691406 C 143.375 69.539062 147.035156 69.539062 148.828125 71.691406 L 172.40625 99.984375 C 173.578125 101.386719 173.828125 103.34375 173.054688 105 C 172.277344 106.65625 170.613281 107.714844 168.78125 107.714844 Z M 168.78125 107.714844 " fill-opacity="1" fill-rule="nonzero"/><g clip-path="url(#9a5da92227)"><path fill="#000000" d="M 291.386719 117.148438 L 83.902344 117.148438 C 76.101562 117.148438 69.757812 123.496094 69.757812 131.292969 L 69.757812 291.625 C 69.757812 299.421875 76.101562 305.769531 88.617188 305.769531 L 296.101562 305.769531 C 299.1875 305.769531 305.535156 299.421875 305.535156 291.625 L 305.535156 131.292969 C 305.535156 123.496094 299.1875 117.148438 291.386719 117.148438 Z M 253.664062 136.011719 C 261.46875 136.011719 267.808594 142.355469 267.808594 150.15625 C 267.808594 157.957031 261.46875 164.304688 253.664062 164.304688 C 245.859375 164.304688 239.515625 157.957031 239.515625 150.15625 C 239.515625 142.355469 245.859375 136.011719 253.664062 136.011719 Z M 187.644531 136.011719 C 195.449219 136.011719 201.792969 142.355469 201.792969 150.15625 C 201.792969 157.957031 195.449219 164.304688 187.644531 164.304688 C 179.847656 164.304688 173.5 157.957031 173.5 150.15625 C 173.5 142.355469 179.847656 136.011719 187.644531 136.011719 Z M 121.628906 136.011719 C 129.421875 136.011719 135.773438 142.363281 135.773438 150.15625 C 135.773438 157.953125 129.421875 164.304688 121.628906 164.304688 C 113.832031 164.304688 107.480469 157.953125 107.480469 150.15625 C 107.480469 142.363281 113.832031 136.011719 121.628906 136.011719 Z M 145.207031 235.035156 C 145.207031 236.824219 144.195312 238.457031 142.597656 239.257812 L 135.773438 242.667969 L 135.773438 282.191406 C 135.773438 284.800781 133.660156 286.90625 131.058594 286.90625 L 112.195312 286.90625 C 109.59375 286.90625 107.480469 284.800781 107.480469 282.191406 L 107.480469 242.667969 L 100.65625 239.253906 C 99.058594 238.457031 98.050781 236.824219 98.050781 235.035156 L 98.050781 202.027344 C 98.050781 186.164062 105.765625 173.734375 121.628906 173.734375 C 137.492188 173.734375 145.207031 186.164062 145.207031 202.027344 Z M 211.222656 235.035156 C 211.222656 236.824219 210.214844 238.457031 208.617188 239.257812 L 201.792969 242.667969 L 201.792969 282.191406 C 201.792969 284.800781 199.683594 286.90625 197.078125 286.90625 L 178.214844 286.90625 C 175.609375 286.90625 173.5 284.800781 173.5 282.191406 L 173.5 242.667969 L 166.675781 239.253906 C 165.078125 238.457031 164.066406 236.824219 164.066406 235.035156 L 164.066406 202.027344 C 164.066406 186.164062 171.78125 173.734375 187.644531 173.734375 C 203.507812 173.734375 211.222656 186.164062 211.222656 202.027344 Z M 277.242188 235.035156 C 277.242188 236.824219 276.230469 238.457031 274.632812 239.257812 L 267.808594 242.667969 L 267.808594 282.191406 C 267.808594 284.800781 265.703125 286.90625 263.09375 286.90625 L 244.230469 286.90625 C 241.625 286.90625 239.515625 284.800781 239.515625 282.191406 L 239.515625 242.667969 L 232.691406 239.253906 C 231.09375 238.457031 230.085938 236.824219 230.085938 235.035156 L 230.085938 202.027344 C 230.085938 186.164062 237.800781 173.734375 253.664062 173.734375 C 269.527344 173.734375 277.242188 186.164062 277.242188 202.027344 Z M 277.242188 235.035156 " fill-opacity="1" fill-rule="nonzero"/></g><g transform="matrix(1, 0, 0, 1, 158, 318)"><g clip-path="url(#51a5fe450a)"><g fill="#ffffff" fill-opacity="1"><g transform="translate(0.928217, 15.824978)"><g><path d="M 8 -11.03125 L 9.328125 -11.03125 L 9.328125 0 L 8 0 L 8 -4.859375 L 2.21875 -4.859375 L 2.21875 0 L 0.90625 0 L 0.90625 -11.03125 L 2.21875 -11.03125 L 2.21875 -5.953125 L 8 -5.953125 Z M 8 -11.03125 "/></g></g></g><g fill="#ffffff" fill-opacity="1"><g transform="translate(11.149981, 15.824978)"><g><path d="M 7.984375 -4.03125 C 7.984375 -3.96875 7.984375 -3.90625 7.984375 -3.84375 C 7.984375 -3.78125 7.976562 -3.710938 7.96875 -3.640625 L 1.75 -3.640625 C 1.820312 -2.671875 2.097656 -1.960938 2.578125 -1.515625 C 3.066406 -1.078125 3.675781 -0.859375 4.40625 -0.859375 C 4.925781 -0.859375 5.347656 -0.929688 5.671875 -1.078125 C 6.003906 -1.234375 6.289062 -1.484375 6.53125 -1.828125 L 7.703125 -1.828125 C 7.378906 -1.148438 6.941406 -0.65625 6.390625 -0.34375 C 5.847656 -0.0390625 5.164062 0.109375 4.34375 0.109375 C 3.675781 0.109375 3.050781 -0.0351562 2.46875 -0.328125 C 1.882812 -0.628906 1.410156 -1.085938 1.046875 -1.703125 C 0.691406 -2.328125 0.515625 -3.117188 0.515625 -4.078125 C 0.515625 -5.046875 0.695312 -5.835938 1.0625 -6.453125 C 1.4375 -7.066406 1.914062 -7.519531 2.5 -7.8125 C 3.082031 -8.113281 3.691406 -8.265625 4.328125 -8.265625 C 4.992188 -8.265625 5.601562 -8.113281 6.15625 -7.8125 C 6.707031 -7.519531 7.148438 -7.0625 7.484375 -6.4375 C 7.816406 -5.8125 7.984375 -5.007812 7.984375 -4.03125 Z M 1.75 -4.5 L 6.765625 -4.5 C 6.753906 -5.414062 6.523438 -6.109375 6.078125 -6.578125 C 5.628906 -7.054688 5.046875 -7.296875 4.328125 -7.296875 C 3.648438 -7.296875 3.066406 -7.066406 2.578125 -6.609375 C 2.097656 -6.148438 1.820312 -5.445312 1.75 -4.5 Z M 1.75 -4.5 "/></g></g></g><g fill="#ffffff" fill-opacity="1"><g transform="translate(19.639242, 15.824978)"><g><path d="M 7.46875 -1.421875 C 7.46875 -1.203125 7.507812 -1.039062 7.59375 -0.9375 C 7.6875 -0.832031 7.84375 -0.785156 8.0625 -0.796875 L 8.0625 -0.03125 C 7.925781 0.03125 7.753906 0.0625 7.546875 0.0625 C 7.160156 0.0625 6.859375 -0.0234375 6.640625 -0.203125 C 6.421875 -0.378906 6.3125 -0.679688 6.3125 -1.109375 L 6.3125 -1.6875 C 6.257812 -1.582031 6.160156 -1.425781 6.015625 -1.21875 C 5.867188 -1.019531 5.671875 -0.816406 5.421875 -0.609375 C 5.179688 -0.410156 4.875 -0.238281 4.5 -0.09375 C 4.132812 0.0390625 3.703125 0.109375 3.203125 0.109375 C 2.429688 0.109375 1.789062 -0.09375 1.28125 -0.5 C 0.769531 -0.914062 0.515625 -1.523438 0.515625 -2.328125 C 0.515625 -3.054688 0.753906 -3.601562 1.234375 -3.96875 C 1.722656 -4.332031 2.445312 -4.585938 3.40625 -4.734375 C 3.726562 -4.785156 4.070312 -4.835938 4.4375 -4.890625 C 4.800781 -4.953125 5.140625 -5.019531 5.453125 -5.09375 C 5.765625 -5.164062 6.015625 -5.25 6.203125 -5.34375 L 6.203125 -5.453125 C 6.203125 -6.160156 6.035156 -6.644531 5.703125 -6.90625 C 5.367188 -7.175781 4.875 -7.3125 4.21875 -7.3125 C 3.601562 -7.3125 3.132812 -7.203125 2.8125 -6.984375 C 2.488281 -6.773438 2.289062 -6.472656 2.21875 -6.078125 L 1.03125 -6.078125 C 1.113281 -6.816406 1.429688 -7.363281 1.984375 -7.71875 C 2.535156 -8.082031 3.285156 -8.265625 4.234375 -8.265625 C 5.328125 -8.265625 6.140625 -8.023438 6.671875 -7.546875 C 7.203125 -7.078125 7.46875 -6.28125 7.46875 -5.15625 Z M 6.203125 -2.609375 L 6.203125 -4.53125 C 5.972656 -4.40625 5.609375 -4.296875 5.109375 -4.203125 C 4.617188 -4.109375 4.101562 -4.015625 3.5625 -3.921875 C 2.882812 -3.816406 2.414062 -3.640625 2.15625 -3.390625 C 1.90625 -3.140625 1.78125 -2.796875 1.78125 -2.359375 C 1.78125 -1.910156 1.925781 -1.539062 2.21875 -1.25 C 2.507812 -0.96875 2.929688 -0.828125 3.484375 -0.828125 C 3.898438 -0.828125 4.269531 -0.898438 4.59375 -1.046875 C 4.914062 -1.191406 5.1875 -1.363281 5.40625 -1.5625 C 5.625 -1.769531 5.796875 -1.96875 5.921875 -2.15625 C 6.054688 -2.351562 6.148438 -2.503906 6.203125 -2.609375 Z M 6.203125 -2.609375 "/></g></g></g><g fill="#ffffff" fill-opacity="1"><g transform="translate(27.986751, 15.824978)"><g><path d="M 4.140625 -8.265625 C 4.765625 -8.265625 5.316406 -8.117188 5.796875 -7.828125 C 6.285156 -7.546875 6.65625 -7.15625 6.90625 -6.65625 L 6.90625 -11.125 L 8.15625 -11.125 L 8.15625 0 L 6.90625 0 L 6.90625 -1.65625 C 6.695312 -1.175781 6.363281 -0.757812 5.90625 -0.40625 C 5.445312 -0.0625 4.867188 0.109375 4.171875 0.109375 C 3.734375 0.109375 3.296875 0.03125 2.859375 -0.125 C 2.429688 -0.289062 2.039062 -0.546875 1.6875 -0.890625 C 1.332031 -1.234375 1.046875 -1.671875 0.828125 -2.203125 C 0.617188 -2.734375 0.515625 -3.363281 0.515625 -4.09375 C 0.515625 -4.820312 0.617188 -5.445312 0.828125 -5.96875 C 1.046875 -6.488281 1.328125 -6.921875 1.671875 -7.265625 C 2.023438 -7.609375 2.414062 -7.859375 2.84375 -8.015625 C 3.28125 -8.179688 3.710938 -8.265625 4.140625 -8.265625 Z M 4.359375 -0.9375 C 4.816406 -0.9375 5.238281 -1.050781 5.625 -1.28125 C 6.019531 -1.519531 6.34375 -1.875 6.59375 -2.34375 C 6.84375 -2.8125 6.96875 -3.394531 6.96875 -4.09375 C 6.96875 -4.832031 6.84375 -5.425781 6.59375 -5.875 C 6.34375 -6.332031 6.019531 -6.671875 5.625 -6.890625 C 5.238281 -7.109375 4.816406 -7.21875 4.359375 -7.21875 C 3.910156 -7.21875 3.484375 -7.109375 3.078125 -6.890625 C 2.679688 -6.671875 2.359375 -6.332031 2.109375 -5.875 C 1.867188 -5.414062 1.75 -4.820312 1.75 -4.09375 C 1.75 -3.375 1.867188 -2.78125 2.109375 -2.3125 C 2.359375 -1.851562 2.679688 -1.507812 3.078125 -1.28125 C 3.484375 -1.050781 3.910156 -0.9375 4.359375 -0.9375 Z M 4.359375 -0.9375 "/></g></g></g><g fill="#ffffff" fill-opacity="1"><g transform="translate(37.058763, 15.824978)"><g><path d="M 0.90625 -11.171875 L 2.171875 -11.171875 L 2.171875 -10 L 0.90625 -10 Z M 0.90625 -8.1875 L 2.171875 -8.1875 L 2.171875 0 L 0.90625 0 Z M 0.90625 -8.1875 "/></g></g></g><g fill="#ffffff" fill-opacity="1"><g transform="translate(40.130019, 15.824978)"><g><path d="M 5.09375 -8.265625 C 5.632812 -8.265625 6.125 -8.160156 6.5625 -7.953125 C 7.007812 -7.753906 7.359375 -7.410156 7.609375 -6.921875 C 7.867188 -6.441406 8 -5.789062 8 -4.96875 L 8 0 L 6.734375 0 L 6.734375 -4.90625 C 6.734375 -5.769531 6.546875 -6.367188 6.171875 -6.703125 C 5.796875 -7.035156 5.296875 -7.203125 4.671875 -7.203125 C 4.160156 -7.203125 3.722656 -7.078125 3.359375 -6.828125 C 3.003906 -6.578125 2.726562 -6.285156 2.53125 -5.953125 C 2.34375 -5.628906 2.222656 -5.335938 2.171875 -5.078125 L 2.171875 0 L 0.90625 0 L 0.90625 -8.1875 L 2.171875 -8.1875 L 2.171875 -6.28125 C 2.210938 -6.425781 2.300781 -6.609375 2.4375 -6.828125 C 2.582031 -7.054688 2.78125 -7.28125 3.03125 -7.5 C 3.28125 -7.71875 3.570312 -7.898438 3.90625 -8.046875 C 4.25 -8.191406 4.644531 -8.265625 5.09375 -8.265625 Z M 5.09375 -8.265625 "/></g></g></g><g clip-path="url(#495107a5c7)"><g fill="#ffffff" fill-opacity="1"><g transform="translate(49.028778, 15.824978)"><g><path d="M 6.875 -8.203125 L 8.140625 -8.203125 L 8.140625 -0.046875 C 8.140625 0.671875 8.023438 1.253906 7.796875 1.703125 C 7.566406 2.160156 7.265625 2.519531 6.890625 2.78125 C 6.515625 3.039062 6.109375 3.21875 5.671875 3.3125 C 5.234375 3.414062 4.800781 3.46875 4.375 3.46875 C 3.613281 3.46875 2.925781 3.320312 2.3125 3.03125 C 1.707031 2.75 1.269531 2.367188 1 1.890625 L 1.8125 1.375 C 2.050781 1.675781 2.375 1.921875 2.78125 2.109375 C 3.195312 2.304688 3.691406 2.40625 4.265625 2.40625 C 5.078125 2.40625 5.710938 2.21875 6.171875 1.84375 C 6.640625 1.476562 6.875 0.847656 6.875 -0.046875 L 6.875 -1.65625 C 6.675781 -1.175781 6.347656 -0.765625 5.890625 -0.421875 C 5.429688 -0.078125 4.847656 0.09375 4.140625 0.09375 C 3.703125 0.09375 3.269531 0.015625 2.84375 -0.140625 C 2.414062 -0.304688 2.023438 -0.5625 1.671875 -0.90625 C 1.328125 -1.25 1.046875 -1.6875 0.828125 -2.21875 C 0.617188 -2.75 0.515625 -3.375 0.515625 -4.09375 C 0.515625 -4.820312 0.617188 -5.445312 0.828125 -5.96875 C 1.046875 -6.488281 1.328125 -6.921875 1.671875 -7.265625 C 2.023438 -7.609375 2.414062 -7.859375 2.84375 -8.015625 C 3.269531 -8.179688 3.695312 -8.265625 4.125 -8.265625 C 4.75 -8.265625 5.300781 -8.117188 5.78125 -7.828125 C 6.257812 -7.546875 6.625 -7.15625 6.875 -6.65625 Z M 4.359375 -0.953125 C 4.816406 -0.953125 5.238281 -1.066406 5.625 -1.296875 C 6.019531 -1.523438 6.335938 -1.875 6.578125 -2.34375 C 6.828125 -2.8125 6.953125 -3.394531 6.953125 -4.09375 C 6.953125 -4.832031 6.828125 -5.425781 6.578125 -5.875 C 6.335938 -6.332031 6.019531 -6.671875 5.625 -6.890625 C 5.238281 -7.117188 4.816406 -7.234375 4.359375 -7.234375 C 3.910156 -7.234375 3.484375 -7.117188 3.078125 -6.890625 C 2.679688 -6.671875 2.363281 -6.332031 2.125 -5.875 C 1.882812 -5.414062 1.765625 -4.820312 1.765625 -4.09375 C 1.765625 -3.375 1.882812 -2.78125 2.125 -2.3125 C 2.363281 -1.851562 2.679688 -1.507812 3.078125 -1.28125 C 3.484375 -1.0625 3.910156 -0.953125 4.359375 -0.953125 Z M 4.359375 -0.953125 "/></g></g></g></g></g></g></svg>