<svg xmlns="http://www.w3.org/2000/svg" xmlns:xlink="http://www.w3.org/1999/xlink" width="500" zoomAndPan="magnify" viewBox="0 0 375 374.999991" height="500" preserveAspectRatio="xMidYMid meet" version="1.0"><defs><g/><clipPath id="4d79bc0f86"><path d="M 207 59.25 L 270 59.25 L 270 101 L 207 101 Z M 207 59.25 " clip-rule="nonzero"/></clipPath><clipPath id="345acf0ea5"><path d="M 110 59.25 L 173 59.25 L 173 101 L 110 101 Z M 110 59.25 " clip-rule="nonzero"/></clipPath><clipPath id="8f34e7b030"><path d="M 59.25 110 L 315.75 110 L 315.75 315.75 L 59.25 315.75 Z M 59.25 110 " clip-rule="nonzero"/></clipPath></defs><rect x="-37.5" width="450" fill="#ffffff" y="-37.499999" height="449.999989" fill-opacity="1"/><rect x="-37.5" width="450" fill="#ffffff" y="-37.499999" height="449.999989" fill-opacity="1"/><g clip-path="url(#4d79bc0f86)"><path fill="#000000" d="M 238.699219 100.71875 C 237.175781 100.71875 235.738281 100.042969 234.761719 98.875 L 209.160156 68.160156 C 207.890625 66.632812 207.617188 64.507812 208.460938 62.710938 C 209.304688 60.914062 211.113281 59.761719 213.097656 59.761719 L 264.296875 59.761719 C 266.28125 59.761719 268.089844 60.914062 268.929688 62.710938 C 269.773438 64.511719 269.5 66.636719 268.226562 68.160156 L 242.628906 98.875 C 241.65625 100.042969 240.21875 100.71875 238.699219 100.71875 Z M 238.699219 100.71875 " fill-opacity="1" fill-rule="nonzero"/></g><g clip-path="url(#345acf0ea5)"><path fill="#000000" d="M 167.019531 100.71875 L 115.824219 100.71875 C 113.835938 100.71875 112.03125 99.566406 111.183594 97.769531 C 110.34375 95.972656 110.617188 93.847656 111.890625 92.324219 L 137.488281 61.605469 C 139.4375 59.269531 143.410156 59.269531 145.355469 61.605469 L 170.953125 92.324219 C 172.226562 93.847656 172.5 95.972656 171.660156 97.769531 C 170.816406 99.566406 169.007812 100.71875 167.019531 100.71875 Z M 167.019531 100.71875 " fill-opacity="1" fill-rule="nonzero"/></g><g clip-path="url(#8f34e7b030)"><path fill="#000000" d="M 300.132812 110.960938 L 74.867188 110.960938 C 66.398438 110.960938 59.507812 117.851562 59.507812 126.320312 L 59.507812 300.390625 C 59.507812 308.859375 66.398438 315.75 79.984375 315.75 L 305.253906 315.75 C 308.601562 315.75 315.492188 308.859375 315.492188 300.390625 L 315.492188 126.320312 C 315.492188 117.851562 308.601562 110.960938 300.132812 110.960938 Z M 259.175781 131.4375 C 267.648438 131.4375 274.535156 138.328125 274.535156 146.796875 C 274.535156 155.265625 267.648438 162.15625 259.175781 162.15625 C 250.703125 162.15625 243.816406 155.265625 243.816406 146.796875 C 243.816406 138.328125 250.703125 131.4375 259.175781 131.4375 Z M 187.5 131.4375 C 195.972656 131.4375 202.859375 138.328125 202.859375 146.796875 C 202.859375 155.265625 195.972656 162.15625 187.5 162.15625 C 179.03125 162.15625 172.140625 155.265625 172.140625 146.796875 C 172.140625 138.328125 179.03125 131.4375 187.5 131.4375 Z M 115.824219 131.4375 C 124.285156 131.4375 131.183594 138.335938 131.183594 146.796875 C 131.183594 155.261719 124.285156 162.15625 115.824219 162.15625 C 107.359375 162.15625 100.464844 155.261719 100.464844 146.796875 C 100.464844 138.335938 107.359375 131.4375 115.824219 131.4375 Z M 141.421875 238.953125 C 141.421875 240.894531 140.328125 242.664062 138.589844 243.535156 L 131.183594 247.238281 L 131.183594 290.152344 C 131.183594 292.980469 128.890625 295.269531 126.0625 295.269531 L 105.582031 295.269531 C 102.757812 295.269531 100.464844 292.980469 100.464844 290.152344 L 100.464844 247.238281 L 93.054688 243.53125 C 91.320312 242.664062 90.222656 240.894531 90.222656 238.953125 L 90.222656 203.117188 C 90.222656 185.890625 98.601562 172.398438 115.824219 172.398438 C 133.046875 172.398438 141.421875 185.890625 141.421875 203.117188 Z M 213.097656 238.953125 C 213.097656 240.894531 212.003906 242.664062 210.265625 243.535156 L 202.859375 247.238281 L 202.859375 290.152344 C 202.859375 292.980469 200.570312 295.269531 197.738281 295.269531 L 177.261719 295.269531 C 174.433594 295.269531 172.140625 292.980469 172.140625 290.152344 L 172.140625 247.238281 L 164.730469 243.53125 C 162.996094 242.664062 161.902344 240.894531 161.902344 238.953125 L 161.902344 203.117188 C 161.902344 185.890625 170.277344 172.398438 187.5 172.398438 C 204.722656 172.398438 213.097656 185.890625 213.097656 203.117188 Z M 284.777344 238.953125 C 284.777344 240.894531 283.679688 242.664062 281.945312 243.535156 L 274.535156 247.238281 L 274.535156 290.152344 C 274.535156 292.980469 272.246094 295.269531 269.417969 295.269531 L 248.9375 295.269531 C 246.105469 295.269531 243.816406 292.980469 243.816406 290.152344 L 243.816406 247.238281 L 236.410156 243.53125 C 234.671875 242.664062 233.578125 240.894531 233.578125 238.953125 L 233.578125 203.117188 C 233.578125 185.890625 241.953125 172.398438 259.175781 172.398438 C 276.398438 172.398438 284.777344 185.890625 284.777344 203.117188 Z M 284.777344 238.953125 " fill-opacity="1" fill-rule="nonzero"/></g><g fill="#ffffff" fill-opacity="1"><g transform="translate(59.250001, 348.749977)"><g><path d="M 16 -22.046875 L 18.640625 -22.046875 L 18.640625 0 L 16 0 L 16 -9.734375 L 4.4375 -9.734375 L 4.4375 0 L 1.828125 0 L 1.828125 -22.046875 L 4.4375 -22.046875 L 4.4375 -11.90625 L 16 -11.90625 Z M 16 -22.046875 "/></g></g></g><g fill="#ffffff" fill-opacity="1"><g transform="translate(79.69353, 348.749977)"><g><path d="M 15.96875 -8.0625 C 15.96875 -7.9375 15.96875 -7.8125 15.96875 -7.6875 C 15.96875 -7.5625 15.957031 -7.425781 15.9375 -7.28125 L 3.5 -7.28125 C 3.644531 -5.34375 4.195312 -3.929688 5.15625 -3.046875 C 6.125 -2.171875 7.34375 -1.734375 8.8125 -1.734375 C 9.84375 -1.734375 10.6875 -1.878906 11.34375 -2.171875 C 12.007812 -2.460938 12.585938 -2.957031 13.078125 -3.65625 L 15.40625 -3.65625 C 14.75 -2.3125 13.875 -1.328125 12.78125 -0.703125 C 11.695312 -0.0859375 10.332031 0.21875 8.6875 0.21875 C 7.34375 0.21875 6.085938 -0.078125 4.921875 -0.671875 C 3.765625 -1.273438 2.828125 -2.195312 2.109375 -3.4375 C 1.398438 -4.675781 1.046875 -6.25 1.046875 -8.15625 C 1.046875 -10.09375 1.410156 -11.671875 2.140625 -12.890625 C 2.878906 -14.117188 3.828125 -15.03125 4.984375 -15.625 C 6.148438 -16.226562 7.375 -16.53125 8.65625 -16.53125 C 9.976562 -16.53125 11.191406 -16.226562 12.296875 -15.625 C 13.398438 -15.03125 14.285156 -14.109375 14.953125 -12.859375 C 15.628906 -11.617188 15.96875 -10.019531 15.96875 -8.0625 Z M 3.5 -9.015625 L 13.546875 -9.015625 C 13.523438 -10.835938 13.0625 -12.21875 12.15625 -13.15625 C 11.25 -14.101562 10.082031 -14.578125 8.65625 -14.578125 C 7.289062 -14.578125 6.125 -14.117188 5.15625 -13.203125 C 4.195312 -12.296875 3.644531 -10.898438 3.5 -9.015625 Z M 3.5 -9.015625 "/></g></g></g><g fill="#ffffff" fill-opacity="1"><g transform="translate(96.672052, 348.749977)"><g><path d="M 14.9375 -2.828125 C 14.9375 -2.390625 15.023438 -2.070312 15.203125 -1.875 C 15.378906 -1.675781 15.6875 -1.585938 16.125 -1.609375 L 16.125 -0.0625 C 15.851562 0.0625 15.507812 0.125 15.09375 0.125 C 14.3125 0.125 13.703125 -0.0507812 13.265625 -0.40625 C 12.835938 -0.757812 12.625 -1.359375 12.625 -2.203125 L 12.625 -3.375 C 12.519531 -3.164062 12.320312 -2.859375 12.03125 -2.453125 C 11.738281 -2.054688 11.34375 -1.648438 10.84375 -1.234375 C 10.351562 -0.828125 9.738281 -0.484375 9 -0.203125 C 8.269531 0.078125 7.398438 0.21875 6.390625 0.21875 C 4.859375 0.21875 3.582031 -0.1875 2.5625 -1 C 1.550781 -1.820312 1.046875 -3.039062 1.046875 -4.65625 C 1.046875 -6.101562 1.523438 -7.195312 2.484375 -7.9375 C 3.453125 -8.675781 4.890625 -9.191406 6.796875 -9.484375 C 7.453125 -9.585938 8.140625 -9.691406 8.859375 -9.796875 C 9.585938 -9.898438 10.265625 -10.023438 10.890625 -10.171875 C 11.523438 -10.316406 12.03125 -10.484375 12.40625 -10.671875 L 12.40625 -10.90625 C 12.40625 -12.332031 12.066406 -13.304688 11.390625 -13.828125 C 10.722656 -14.347656 9.738281 -14.609375 8.4375 -14.609375 C 7.195312 -14.609375 6.253906 -14.398438 5.609375 -13.984375 C 4.972656 -13.566406 4.582031 -12.957031 4.4375 -12.15625 L 2.046875 -12.15625 C 2.210938 -13.625 2.851562 -14.71875 3.96875 -15.4375 C 5.082031 -16.164062 6.582031 -16.53125 8.46875 -16.53125 C 10.65625 -16.53125 12.28125 -16.054688 13.34375 -15.109375 C 14.40625 -14.171875 14.9375 -12.566406 14.9375 -10.296875 Z M 12.40625 -5.234375 L 12.40625 -9.078125 C 11.945312 -8.816406 11.222656 -8.59375 10.234375 -8.40625 C 9.242188 -8.21875 8.207031 -8.03125 7.125 -7.84375 C 5.78125 -7.632812 4.847656 -7.273438 4.328125 -6.765625 C 3.816406 -6.265625 3.5625 -5.582031 3.5625 -4.71875 C 3.5625 -3.820312 3.851562 -3.085938 4.4375 -2.515625 C 5.03125 -1.953125 5.875 -1.671875 6.96875 -1.671875 C 7.800781 -1.671875 8.535156 -1.8125 9.171875 -2.09375 C 9.816406 -2.375 10.359375 -2.71875 10.796875 -3.125 C 11.242188 -3.539062 11.597656 -3.941406 11.859375 -4.328125 C 12.117188 -4.710938 12.300781 -5.015625 12.40625 -5.234375 Z M 12.40625 -5.234375 "/></g></g></g><g fill="#ffffff" fill-opacity="1"><g transform="translate(113.36707, 348.749977)"><g><path d="M 8.28125 -16.53125 C 9.519531 -16.53125 10.628906 -16.242188 11.609375 -15.671875 C 12.585938 -15.097656 13.316406 -14.316406 13.796875 -13.328125 L 13.796875 -22.234375 L 16.3125 -22.234375 L 16.3125 0 L 13.796875 0 L 13.796875 -3.3125 C 13.398438 -2.363281 12.738281 -1.535156 11.8125 -0.828125 C 10.882812 -0.128906 9.726562 0.21875 8.34375 0.21875 C 7.46875 0.21875 6.597656 0.0546875 5.734375 -0.265625 C 4.867188 -0.585938 4.078125 -1.085938 3.359375 -1.765625 C 2.648438 -2.453125 2.085938 -3.328125 1.671875 -4.390625 C 1.253906 -5.453125 1.046875 -6.71875 1.046875 -8.1875 C 1.046875 -9.632812 1.253906 -10.882812 1.671875 -11.9375 C 2.085938 -12.988281 2.644531 -13.851562 3.34375 -14.53125 C 4.050781 -15.21875 4.835938 -15.722656 5.703125 -16.046875 C 6.566406 -16.367188 7.425781 -16.53125 8.28125 -16.53125 Z M 8.71875 -1.890625 C 9.625 -1.890625 10.46875 -2.117188 11.25 -2.578125 C 12.039062 -3.046875 12.679688 -3.742188 13.171875 -4.671875 C 13.671875 -5.609375 13.921875 -6.78125 13.921875 -8.1875 C 13.921875 -9.65625 13.671875 -10.847656 13.171875 -11.765625 C 12.679688 -12.679688 12.039062 -13.351562 11.25 -13.78125 C 10.46875 -14.207031 9.625 -14.421875 8.71875 -14.421875 C 7.820312 -14.421875 6.972656 -14.207031 6.171875 -13.78125 C 5.378906 -13.351562 4.734375 -12.675781 4.234375 -11.75 C 3.742188 -10.820312 3.5 -9.632812 3.5 -8.1875 C 3.5 -6.738281 3.742188 -5.550781 4.234375 -4.625 C 4.734375 -3.707031 5.378906 -3.019531 6.171875 -2.5625 C 6.972656 -2.113281 7.820312 -1.890625 8.71875 -1.890625 Z M 8.71875 -1.890625 "/></g></g></g><g fill="#ffffff" fill-opacity="1"><g transform="translate(131.511093, 348.749977)"><g><path d="M 1.828125 -22.328125 L 4.34375 -22.328125 L 4.34375 -20 L 1.828125 -20 Z M 1.828125 -16.375 L 4.34375 -16.375 L 4.34375 0 L 1.828125 0 Z M 1.828125 -16.375 "/></g></g></g><g fill="#ffffff" fill-opacity="1"><g transform="translate(137.653605, 348.749977)"><g><path d="M 10.171875 -16.53125 C 11.265625 -16.53125 12.25 -16.328125 13.125 -15.921875 C 14.007812 -15.515625 14.707031 -14.828125 15.21875 -13.859375 C 15.738281 -12.890625 16 -11.578125 16 -9.921875 L 16 0 L 13.484375 0 L 13.484375 -9.828125 C 13.484375 -11.546875 13.101562 -12.734375 12.34375 -13.390625 C 11.59375 -14.054688 10.597656 -14.390625 9.359375 -14.390625 C 8.328125 -14.390625 7.453125 -14.144531 6.734375 -13.65625 C 6.023438 -13.164062 5.472656 -12.585938 5.078125 -11.921875 C 4.691406 -11.265625 4.445312 -10.671875 4.34375 -10.140625 L 4.34375 0 L 1.828125 0 L 1.828125 -16.375 L 4.34375 -16.375 L 4.34375 -12.5625 C 4.425781 -12.863281 4.609375 -13.234375 4.890625 -13.671875 C 5.179688 -14.109375 5.570312 -14.546875 6.0625 -14.984375 C 6.550781 -15.429688 7.132812 -15.800781 7.8125 -16.09375 C 8.5 -16.382812 9.285156 -16.53125 10.171875 -16.53125 Z M 10.171875 -16.53125 "/></g></g></g><g fill="#ffffff" fill-opacity="1"><g transform="translate(155.451124, 348.749977)"><g><path d="M 13.765625 -16.40625 L 16.28125 -16.40625 L 16.28125 -0.09375 C 16.28125 1.332031 16.050781 2.5 15.59375 3.40625 C 15.132812 4.320312 14.53125 5.035156 13.78125 5.546875 C 13.03125 6.066406 12.210938 6.425781 11.328125 6.625 C 10.453125 6.832031 9.59375 6.9375 8.75 6.9375 C 7.21875 6.9375 5.84375 6.648438 4.625 6.078125 C 3.40625 5.515625 2.523438 4.75 1.984375 3.78125 L 3.625 2.734375 C 4.101562 3.347656 4.75 3.847656 5.5625 4.234375 C 6.382812 4.617188 7.375 4.8125 8.53125 4.8125 C 10.15625 4.8125 11.429688 4.4375 12.359375 3.6875 C 13.296875 2.945312 13.765625 1.6875 13.765625 -0.09375 L 13.765625 -3.3125 C 13.367188 -2.363281 12.707031 -1.539062 11.78125 -0.84375 C 10.851562 -0.15625 9.6875 0.1875 8.28125 0.1875 C 7.40625 0.1875 6.539062 0.0234375 5.6875 -0.296875 C 4.832031 -0.617188 4.050781 -1.117188 3.34375 -1.796875 C 2.644531 -2.484375 2.085938 -3.359375 1.671875 -4.421875 C 1.253906 -5.484375 1.046875 -6.738281 1.046875 -8.1875 C 1.046875 -9.632812 1.253906 -10.882812 1.671875 -11.9375 C 2.085938 -12.988281 2.644531 -13.851562 3.34375 -14.53125 C 4.050781 -15.21875 4.832031 -15.722656 5.6875 -16.046875 C 6.539062 -16.367188 7.394531 -16.53125 8.25 -16.53125 C 9.488281 -16.53125 10.59375 -16.242188 11.5625 -15.671875 C 12.53125 -15.097656 13.265625 -14.316406 13.765625 -13.328125 Z M 8.71875 -1.921875 C 9.625 -1.921875 10.46875 -2.144531 11.25 -2.59375 C 12.039062 -3.050781 12.675781 -3.742188 13.15625 -4.671875 C 13.644531 -5.609375 13.890625 -6.78125 13.890625 -8.1875 C 13.890625 -9.65625 13.644531 -10.847656 13.15625 -11.765625 C 12.675781 -12.679688 12.039062 -13.359375 11.25 -13.796875 C 10.46875 -14.234375 9.625 -14.453125 8.71875 -14.453125 C 7.820312 -14.453125 6.972656 -14.234375 6.171875 -13.796875 C 5.378906 -13.359375 4.738281 -12.675781 4.25 -11.75 C 3.769531 -10.820312 3.53125 -9.632812 3.53125 -8.1875 C 3.53125 -6.738281 3.769531 -5.550781 4.25 -4.625 C 4.738281 -3.707031 5.378906 -3.023438 6.171875 -2.578125 C 6.972656 -2.140625 7.820312 -1.921875 8.71875 -1.921875 Z M 8.71875 -1.921875 "/></g></g></g></svg>