<svg xmlns="http://www.w3.org/2000/svg" xmlns:xlink="http://www.w3.org/1999/xlink" width="500" zoomAndPan="magnify" viewBox="0 0 375 374.999991" height="500" preserveAspectRatio="xMidYMid meet" version="1.0"><defs><filter x="0%" y="0%" width="100%" height="100%" id="6bf937ef83"><feColorMatrix values="0 0 0 0 1 0 0 0 0 1 0 0 0 0 1 0 0 0 1 0" color-interpolation-filters="sRGB"/></filter><clipPath id="047f127f9c"><path d="M 187.5 0 C 83.945312 0 0 83.945312 0 187.5 C 0 291.054688 83.945312 375 187.5 375 C 291.054688 375 375 291.054688 375 187.5 C 375 83.945312 291.054688 0 187.5 0 Z M 187.5 0 " clip-rule="nonzero"/></clipPath><clipPath id="30b688f3b1"><path d="M 0 0 L 375 0 L 375 375 L 0 375 Z M 0 0 " clip-rule="nonzero"/></clipPath><clipPath id="21ab540be5"><path d="M 187.5 0 C 83.945312 0 0 83.945312 0 187.5 C 0 291.054688 83.945312 375 187.5 375 C 291.054688 375 375 291.054688 375 187.5 C 375 83.945312 291.054688 0 187.5 0 Z M 187.5 0 " clip-rule="nonzero"/></clipPath><clipPath id="907dfedb92"><rect x="0" width="375" y="0" height="375"/></clipPath><mask id="57df87fb0c"><g filter="url(#6bf937ef83)"><rect x="-37.5" width="450" fill="#000000" y="-37.499999" height="449.999989" fill-opacity="0.2"/></g></mask><clipPath id="e520d82902"><path d="M 1.050781 27 L 240 27 L 240 265.800781 L 1.050781 265.800781 Z M 1.050781 27 " clip-rule="nonzero"/></clipPath><clipPath id="1c6db3fd19"><path d="M 223 1.050781 L 265.800781 1.050781 L 265.800781 44 L 223 44 Z M 223 1.050781 " clip-rule="nonzero"/></clipPath><clipPath id="f6507f4533"><rect x="0" width="267" y="0" height="267"/></clipPath><clipPath id="b6c2c4460d"><path d="M 78.398438 85.175781 L 268.898438 85.175781 L 268.898438 319.925781 L 78.398438 319.925781 Z M 78.398438 85.175781 " clip-rule="nonzero"/></clipPath><clipPath id="27bafed4e0"><path d="M 103 136 L 244 136 L 244 319.925781 L 103 319.925781 Z M 103 136 " clip-rule="nonzero"/></clipPath><clipPath id="159bb57fa0"><path d="M 143 200 L 205 200 L 205 319.925781 L 143 319.925781 Z M 143 200 " clip-rule="nonzero"/></clipPath><clipPath id="0b7ae823d1"><path d="M 169 271 L 178 271 L 178 319.925781 L 169 319.925781 Z M 169 271 " clip-rule="nonzero"/></clipPath></defs><g clip-path="url(#047f127f9c)"><g transform="matrix(1, 0, 0, 1, 0, 0)"><g clip-path="url(#907dfedb92)"><g clip-path="url(#30b688f3b1)"><g clip-path="url(#21ab540be5)"><rect x="-82.5" width="540" fill="#000000" height="539.999987" y="-82.499998" fill-opacity="1"/></g></g></g></g></g><g mask="url(#57df87fb0c)"><g transform="matrix(1, 0, 0, 1, 54, 54)"><g clip-path="url(#f6507f4533)"><g clip-path="url(#e520d82902)"><path fill="#ffffff" d="M 223.980469 103.71875 C 229.242188 116.375 232.070312 129.75 232.46875 143.511719 L 190.035156 143.511719 C 189.734375 125.105469 186.972656 107.734375 182.285156 92.316406 L 193.46875 92.316406 L 193.46875 85.636719 L 180.109375 85.636719 C 172.757812 64.84375 161.78125 48.1875 148.683594 38.171875 C 160.839844 41.355469 172.433594 46.503906 182.988281 53.632812 L 186.726562 48.105469 C 167.03125 34.796875 144.007812 27.761719 120.140625 27.761719 C 54.472656 27.761719 1.050781 81.183594 1.050781 146.851562 C 1.050781 212.515625 54.472656 265.941406 120.140625 265.941406 C 185.804688 265.941406 239.230469 212.515625 239.230469 146.851562 C 239.230469 131.019531 236.171875 115.648438 230.148438 101.152344 Z M 7.8125 150.191406 L 50.242188 150.191406 C 50.542969 168.597656 53.304688 185.964844 57.992188 201.386719 L 21.890625 201.386719 C 13.390625 186.140625 8.359375 168.722656 7.8125 150.191406 Z M 116.800781 85.636719 L 67.117188 85.636719 C 77.84375 56.402344 96 36.527344 116.800781 34.597656 Z M 116.800781 92.316406 L 116.800781 143.511719 L 56.917969 143.511719 C 57.226562 124.980469 60.058594 107.5625 64.839844 92.316406 Z M 50.242188 143.511719 L 7.8125 143.511719 C 8.359375 124.980469 13.390625 107.5625 21.890625 92.316406 L 57.992188 92.316406 C 53.304688 107.734375 50.542969 125.105469 50.242188 143.511719 Z M 56.917969 150.191406 L 116.800781 150.191406 L 116.800781 201.386719 L 64.839844 201.386719 C 60.058594 186.140625 57.226562 168.722656 56.917969 150.191406 Z M 116.800781 208.066406 L 116.800781 259.105469 C 96 257.171875 77.84375 237.300781 67.117188 208.066406 Z M 123.476562 208.066406 L 173.160156 208.066406 C 162.433594 237.300781 144.277344 257.171875 123.476562 259.105469 Z M 123.476562 201.386719 L 123.476562 150.191406 L 183.359375 150.191406 C 183.050781 168.722656 180.21875 186.140625 175.433594 201.386719 Z M 190.035156 150.191406 L 232.464844 150.191406 C 231.921875 168.722656 226.886719 186.140625 218.386719 201.386719 L 182.285156 201.386719 C 186.972656 185.964844 189.734375 168.597656 190.035156 150.191406 Z M 183.359375 143.511719 L 123.476562 143.511719 L 123.476562 92.316406 L 175.433594 92.316406 C 180.21875 107.5625 183.050781 124.980469 183.359375 143.511719 Z M 173.160156 85.636719 L 123.476562 85.636719 L 123.476562 34.597656 C 144.277344 36.527344 162.433594 56.402344 173.160156 85.636719 Z M 91.695312 38.09375 C 78.550781 48.097656 67.539062 64.789062 60.167969 85.636719 L 25.929688 85.636719 C 41 62.523438 64.320312 45.257812 91.695312 38.09375 Z M 25.929688 208.066406 L 60.167969 208.066406 C 67.539062 228.914062 78.550781 245.605469 91.695312 255.609375 C 64.320312 248.441406 41 231.179688 25.929688 208.066406 Z M 148.582031 255.609375 C 161.726562 245.605469 172.738281 228.914062 180.109375 208.066406 L 214.347656 208.066406 C 199.277344 231.179688 175.960938 248.441406 148.582031 255.609375 Z M 148.582031 255.609375 " fill-opacity="1" fill-rule="nonzero"/></g><g clip-path="url(#1c6db3fd19)"><path fill="#ffffff" d="M 263.757812 19.066406 C 256.414062 16.347656 250.640625 10.574219 247.925781 3.230469 C 247.441406 1.917969 246.1875 1.050781 244.792969 1.050781 C 243.398438 1.050781 242.144531 1.917969 241.664062 3.230469 C 238.945312 10.574219 233.171875 16.347656 225.828125 19.066406 C 224.515625 19.550781 223.648438 20.800781 223.648438 22.195312 C 223.648438 23.59375 224.515625 24.84375 225.828125 25.328125 C 233.171875 28.042969 238.945312 33.816406 241.664062 41.160156 C 242.144531 42.472656 243.398438 43.34375 244.792969 43.34375 C 246.1875 43.34375 247.441406 42.472656 247.925781 41.160156 C 250.640625 33.816406 256.414062 28.042969 263.757812 25.328125 C 265.070312 24.84375 265.941406 23.59375 265.941406 22.195312 C 265.941406 20.800781 265.070312 19.550781 263.757812 19.066406 Z M 244.792969 32.519531 C 242.15625 28.355469 238.632812 24.835938 234.472656 22.195312 C 238.632812 19.558594 242.15625 16.035156 244.792969 11.875 C 247.433594 16.035156 250.953125 19.558594 255.113281 22.195312 C 250.953125 24.835938 247.433594 28.355469 244.792969 32.519531 Z M 244.792969 32.519531 " fill-opacity="1" fill-rule="nonzero"/></g><path fill="#ffffff" d="M 172.226562 25.328125 C 177.515625 27.285156 181.664062 31.429688 183.613281 36.707031 C 184.097656 38.023438 185.34375 38.890625 186.746094 38.890625 C 188.140625 38.890625 189.390625 38.023438 189.875 36.714844 C 191.832031 31.429688 195.980469 27.285156 201.261719 25.328125 C 202.570312 24.84375 203.4375 23.59375 203.4375 22.195312 C 203.4375 20.800781 202.570312 19.550781 201.261719 19.066406 C 195.980469 17.109375 191.832031 12.960938 189.875 7.679688 C 189.390625 6.371094 188.140625 5.5 186.746094 5.5 C 185.34375 5.5 184.097656 6.371094 183.613281 7.683594 C 181.664062 12.960938 177.515625 17.109375 172.226562 19.066406 C 170.917969 19.550781 170.050781 20.800781 170.050781 22.195312 C 170.050781 23.59375 170.917969 24.84375 172.226562 25.328125 Z M 186.746094 15.953125 C 188.453125 18.375 190.566406 20.488281 192.988281 22.195312 C 190.566406 23.90625 188.453125 26.019531 186.746094 28.441406 C 185.035156 26.019531 182.925781 23.90625 180.5 22.195312 C 182.925781 20.488281 185.035156 18.375 186.746094 15.953125 Z M 186.746094 15.953125 " fill-opacity="1" fill-rule="nonzero"/><path fill="#ffffff" d="M 246.75 63.554688 C 233.207031 58.542969 222.570312 47.902344 217.554688 34.359375 C 217.074219 33.050781 215.820312 32.183594 214.425781 32.183594 C 213.03125 32.183594 211.777344 33.050781 211.296875 34.359375 C 206.28125 47.902344 195.644531 58.542969 182.101562 63.554688 C 180.792969 64.039062 179.921875 65.289062 179.921875 66.6875 C 179.921875 68.082031 180.792969 69.332031 182.101562 69.816406 C 195.644531 74.828125 206.28125 85.46875 211.296875 99.011719 C 211.777344 100.320312 213.03125 101.1875 214.425781 101.1875 C 215.820312 101.1875 217.074219 100.320312 217.554688 99.011719 C 222.570312 85.46875 233.207031 74.828125 246.75 69.816406 C 248.058594 69.332031 248.929688 68.082031 248.929688 66.6875 C 248.929688 65.289062 248.058594 64.039062 246.75 63.554688 Z M 214.425781 89.722656 C 209.195312 79.929688 201.183594 71.914062 191.386719 66.6875 C 201.183594 61.457031 209.195312 53.441406 214.425781 43.648438 C 219.65625 53.441406 227.667969 61.457031 237.464844 66.6875 C 227.667969 71.914062 219.65625 79.929688 214.425781 89.722656 Z M 214.425781 89.722656 " fill-opacity="1" fill-rule="nonzero"/></g></g></g><g clip-path="url(#b6c2c4460d)"><path fill="#ffffff" d="M 254.296875 319.386719 L 92.886719 319.386719 C 91.925781 319.386719 90.972656 319.289062 90.03125 319.101562 C 89.089844 318.910156 88.175781 318.632812 87.285156 318.265625 C 86.398438 317.894531 85.554688 317.445312 84.757812 316.910156 C 83.957031 316.375 83.21875 315.769531 82.539062 315.089844 C 81.859375 314.410156 81.253906 313.671875 80.71875 312.871094 C 80.183594 312.074219 79.734375 311.230469 79.363281 310.34375 C 78.996094 309.453125 78.714844 308.539062 78.527344 307.597656 C 78.339844 306.65625 78.242188 305.703125 78.242188 304.742188 L 78.242188 99.730469 C 78.242188 98.765625 78.339844 97.816406 78.527344 96.875 C 78.714844 95.929688 78.996094 95.015625 79.363281 94.128906 C 79.734375 93.242188 80.183594 92.398438 80.71875 91.597656 C 81.253906 90.800781 81.859375 90.0625 82.539062 89.382812 C 83.21875 88.703125 83.957031 88.09375 84.757812 87.5625 C 85.554688 87.027344 86.398438 86.574219 87.285156 86.207031 C 88.175781 85.835938 89.089844 85.558594 90.03125 85.371094 C 90.972656 85.179688 91.925781 85.085938 92.886719 85.082031 L 254.296875 85.082031 C 255.257812 85.085938 256.207031 85.179688 257.148438 85.371094 C 258.09375 85.558594 259.007812 85.835938 259.894531 86.207031 C 260.78125 86.574219 261.625 87.027344 262.425781 87.5625 C 263.222656 88.09375 263.960938 88.703125 264.640625 89.382812 C 265.320312 90.0625 265.929688 90.800781 266.464844 91.597656 C 266.996094 92.398438 267.449219 93.242188 267.816406 94.128906 C 268.1875 95.015625 268.464844 95.929688 268.652344 96.875 C 268.84375 97.816406 268.9375 98.765625 268.941406 99.730469 L 268.941406 304.730469 C 268.9375 305.691406 268.84375 306.644531 268.65625 307.585938 C 268.46875 308.53125 268.1875 309.445312 267.820312 310.335938 C 267.453125 311.222656 267 312.066406 266.464844 312.867188 C 265.933594 313.664062 265.324219 314.40625 264.644531 315.085938 C 263.964844 315.765625 263.226562 316.371094 262.429688 316.90625 C 261.628906 317.441406 260.785156 317.894531 259.898438 318.261719 C 259.007812 318.632812 258.09375 318.910156 257.152344 319.101562 C 256.207031 319.289062 255.257812 319.386719 254.296875 319.386719 Z M 92.886719 92.394531 C 92.40625 92.394531 91.929688 92.445312 91.457031 92.539062 C 90.988281 92.632812 90.53125 92.773438 90.085938 92.957031 C 89.644531 93.140625 89.222656 93.367188 88.824219 93.636719 C 88.421875 93.902344 88.054688 94.207031 87.714844 94.546875 C 87.375 94.886719 87.070312 95.253906 86.804688 95.652344 C 86.535156 96.054688 86.308594 96.476562 86.125 96.917969 C 85.941406 97.363281 85.800781 97.820312 85.707031 98.289062 C 85.613281 98.761719 85.566406 99.238281 85.5625 99.71875 L 85.5625 304.730469 C 85.566406 305.210938 85.613281 305.6875 85.707031 306.160156 C 85.800781 306.628906 85.941406 307.085938 86.125 307.53125 C 86.308594 307.972656 86.535156 308.394531 86.804688 308.792969 C 87.070312 309.195312 87.375 309.5625 87.714844 309.902344 C 88.054688 310.242188 88.421875 310.546875 88.824219 310.8125 C 89.222656 311.082031 89.644531 311.308594 90.085938 311.492188 C 90.53125 311.675781 90.988281 311.816406 91.457031 311.910156 C 91.929688 312.003906 92.40625 312.050781 92.886719 312.054688 L 254.296875 312.054688 C 254.777344 312.054688 255.253906 312.007812 255.722656 311.914062 C 256.195312 311.820312 256.652344 311.679688 257.097656 311.496094 C 257.542969 311.3125 257.964844 311.085938 258.363281 310.820312 C 258.761719 310.550781 259.132812 310.25 259.472656 309.910156 C 259.8125 309.570312 260.117188 309.199219 260.382812 308.800781 C 260.652344 308.398438 260.875 307.976562 261.058594 307.535156 C 261.246094 307.089844 261.382812 306.632812 261.476562 306.160156 C 261.570312 305.6875 261.617188 305.210938 261.617188 304.730469 L 261.617188 99.730469 C 261.617188 99.246094 261.570312 98.773438 261.476562 98.300781 C 261.382812 97.828125 261.246094 97.371094 261.058594 96.925781 C 260.875 96.480469 260.652344 96.058594 260.382812 95.660156 C 260.117188 95.261719 259.8125 94.890625 259.472656 94.550781 C 259.132812 94.210938 258.761719 93.90625 258.363281 93.640625 C 257.964844 93.375 257.542969 93.148438 257.097656 92.964844 C 256.652344 92.78125 256.195312 92.640625 255.722656 92.546875 C 255.253906 92.453125 254.777344 92.40625 254.296875 92.40625 Z M 92.886719 92.394531 " fill-opacity="1" fill-rule="nonzero"/></g><g clip-path="url(#27bafed4e0)"><path fill="#ffffff" d="M 239.660156 319.386719 L 107.519531 319.386719 C 107.035156 319.386719 106.566406 319.292969 106.117188 319.109375 C 105.671875 318.921875 105.273438 318.65625 104.929688 318.3125 C 104.585938 317.972656 104.324219 317.574219 104.136719 317.125 C 103.953125 316.679688 103.859375 316.210938 103.859375 315.726562 L 103.859375 148.5625 C 103.859375 147.757812 103.9375 146.964844 104.097656 146.175781 C 104.253906 145.390625 104.484375 144.625 104.792969 143.882812 C 105.101562 143.140625 105.476562 142.4375 105.921875 141.769531 C 106.371094 141.101562 106.875 140.484375 107.445312 139.917969 C 108.011719 139.351562 108.628906 138.84375 109.296875 138.394531 C 109.964844 137.949219 110.667969 137.574219 111.410156 137.265625 C 112.152344 136.957031 112.914062 136.726562 113.703125 136.566406 C 114.488281 136.410156 115.285156 136.332031 116.085938 136.328125 L 231.089844 136.328125 C 231.894531 136.328125 232.6875 136.410156 233.476562 136.566406 C 234.261719 136.722656 235.027344 136.957031 235.769531 137.265625 C 236.511719 137.570312 237.214844 137.949219 237.882812 138.394531 C 238.550781 138.839844 239.167969 139.347656 239.734375 139.917969 C 240.304688 140.484375 240.8125 141.101562 241.257812 141.769531 C 241.703125 142.4375 242.082031 143.140625 242.386719 143.882812 C 242.695312 144.625 242.929688 145.386719 243.085938 146.175781 C 243.242188 146.964844 243.320312 147.757812 243.324219 148.5625 L 243.324219 315.726562 C 243.324219 316.210938 243.230469 316.679688 243.042969 317.125 C 242.859375 317.574219 242.59375 317.972656 242.25 318.3125 C 241.90625 318.65625 241.511719 318.921875 241.0625 319.109375 C 240.613281 319.292969 240.148438 319.386719 239.660156 319.386719 Z M 111.179688 312.066406 L 236 312.066406 L 236 148.5625 C 236 148.238281 235.96875 147.917969 235.90625 147.601562 C 235.84375 147.289062 235.75 146.980469 235.625 146.683594 C 235.503906 146.386719 235.351562 146.101562 235.171875 145.835938 C 234.992188 145.566406 234.789062 145.320312 234.5625 145.089844 C 234.332031 144.863281 234.085938 144.660156 233.816406 144.480469 C 233.550781 144.300781 233.265625 144.148438 232.96875 144.027344 C 232.671875 143.902344 232.363281 143.808594 232.046875 143.746094 C 231.730469 143.683594 231.414062 143.652344 231.089844 143.652344 L 116.085938 143.652344 C 115.765625 143.652344 115.445312 143.683594 115.128906 143.746094 C 114.8125 143.808594 114.507812 143.902344 114.210938 144.027344 C 113.914062 144.152344 113.628906 144.300781 113.363281 144.480469 C 113.09375 144.660156 112.847656 144.863281 112.617188 145.089844 C 112.390625 145.320312 112.1875 145.566406 112.007812 145.835938 C 111.828125 146.101562 111.679688 146.386719 111.554688 146.683594 C 111.433594 146.980469 111.339844 147.289062 111.277344 147.605469 C 111.210938 147.917969 111.179688 148.238281 111.179688 148.5625 Z M 111.179688 312.066406 " fill-opacity="1" fill-rule="nonzero"/></g><path fill="#ffffff" d="M 148.300781 128.980469 L 126.902344 128.980469 C 126.386719 128.980469 125.878906 128.910156 125.378906 128.773438 C 124.882812 128.636719 124.414062 128.433594 123.96875 128.167969 C 123.527344 127.902344 123.128906 127.578125 122.773438 127.203125 C 122.417969 126.828125 122.121094 126.414062 121.878906 125.957031 C 121.636719 125.5 121.460938 125.019531 121.347656 124.515625 C 121.238281 124.011719 121.195312 123.5 121.226562 122.984375 C 121.253906 122.46875 121.347656 121.96875 121.515625 121.476562 C 121.679688 120.988281 121.90625 120.53125 122.199219 120.101562 L 132.898438 104.359375 C 133.175781 103.996094 133.488281 103.671875 133.835938 103.378906 C 134.1875 103.089844 134.566406 102.84375 134.976562 102.640625 C 135.382812 102.4375 135.808594 102.285156 136.253906 102.183594 C 136.695312 102.078125 137.144531 102.027344 137.601562 102.027344 C 138.054688 102.027344 138.503906 102.078125 138.949219 102.183594 C 139.390625 102.285156 139.816406 102.4375 140.222656 102.640625 C 140.632812 102.84375 141.011719 103.089844 141.363281 103.378906 C 141.710938 103.671875 142.027344 103.996094 142.300781 104.359375 L 153.003906 120.101562 C 153.292969 120.53125 153.519531 120.988281 153.6875 121.476562 C 153.851562 121.96875 153.949219 122.46875 153.976562 122.984375 C 154.003906 123.5 153.964844 124.011719 153.855469 124.515625 C 153.742188 125.023438 153.566406 125.503906 153.324219 125.957031 C 153.082031 126.414062 152.785156 126.832031 152.429688 127.207031 C 152.074219 127.582031 151.675781 127.902344 151.234375 128.167969 C 150.789062 128.4375 150.320312 128.636719 149.824219 128.777344 C 149.324219 128.914062 148.816406 128.984375 148.300781 128.984375 Z M 146.945312 124.222656 Z M 129.996094 121.660156 L 145.207031 121.660156 L 137.601562 110.484375 Z M 129.996094 121.660156 " fill-opacity="1" fill-rule="nonzero"/><path fill="#ffffff" d="M 209.578125 128.980469 C 208.636719 128.980469 207.75 128.761719 206.917969 128.324219 C 206.085938 127.882812 205.40625 127.277344 204.878906 126.5 L 194.175781 110.757812 C 193.886719 110.328125 193.65625 109.871094 193.492188 109.378906 C 193.328125 108.890625 193.230469 108.390625 193.199219 107.871094 C 193.171875 107.355469 193.214844 106.847656 193.324219 106.34375 C 193.433594 105.835938 193.609375 105.355469 193.851562 104.898438 C 194.09375 104.445312 194.394531 104.027344 194.746094 103.652344 C 195.101562 103.277344 195.5 102.957031 195.945312 102.6875 C 196.386719 102.421875 196.855469 102.21875 197.355469 102.082031 C 197.851562 101.945312 198.359375 101.875 198.875 101.875 L 220.277344 101.875 C 220.792969 101.875 221.300781 101.941406 221.796875 102.082031 C 222.296875 102.21875 222.765625 102.421875 223.210938 102.6875 C 223.652344 102.953125 224.050781 103.273438 224.40625 103.652344 C 224.761719 104.027344 225.0625 104.441406 225.300781 104.898438 C 225.542969 105.355469 225.722656 105.835938 225.832031 106.339844 C 225.941406 106.84375 225.984375 107.355469 225.957031 107.871094 C 225.925781 108.386719 225.828125 108.890625 225.664062 109.378906 C 225.5 109.871094 225.269531 110.328125 224.980469 110.757812 L 214.277344 126.5 C 213.75 127.277344 213.066406 127.882812 212.234375 128.324219 C 211.40625 128.761719 210.519531 128.980469 209.578125 128.980469 Z M 201.96875 109.210938 L 209.578125 120.371094 L 217.183594 109.195312 Z M 220.277344 109.210938 Z M 220.277344 109.210938 " fill-opacity="1" fill-rule="nonzero"/><g clip-path="url(#159bb57fa0)"><path fill="#ffffff" d="M 179.320312 319.6875 L 167.863281 319.6875 C 167.226562 319.6875 166.59375 319.636719 165.964844 319.527344 C 165.339844 319.417969 164.722656 319.253906 164.125 319.035156 C 163.527344 318.820312 162.949219 318.550781 162.398438 318.234375 C 161.847656 317.914062 161.328125 317.550781 160.839844 317.140625 C 160.351562 316.730469 159.902344 316.28125 159.492188 315.792969 C 159.085938 315.304688 158.71875 314.785156 158.402344 314.234375 C 158.085938 313.679688 157.816406 313.105469 157.601562 312.507812 C 157.386719 311.90625 157.222656 311.292969 157.113281 310.664062 L 148.15625 259.332031 C 147.847656 257.554688 147.222656 255.898438 146.285156 254.359375 C 145.25 252.667969 144.46875 250.867188 143.929688 248.957031 C 143.394531 247.050781 143.125 245.105469 143.125 243.121094 L 143.125 218.636719 C 143.125 218.054688 143.152344 217.480469 143.210938 216.902344 C 143.269531 216.328125 143.355469 215.753906 143.46875 215.1875 C 143.582031 214.621094 143.722656 214.058594 143.890625 213.503906 C 144.058594 212.953125 144.253906 212.40625 144.476562 211.871094 C 144.695312 211.339844 144.945312 210.816406 145.21875 210.304688 C 145.492188 209.792969 145.789062 209.296875 146.109375 208.816406 C 146.429688 208.335938 146.777344 207.871094 147.144531 207.425781 C 147.511719 206.976562 147.898438 206.546875 148.308594 206.140625 C 148.71875 205.730469 149.144531 205.339844 149.59375 204.972656 C 150.039062 204.605469 150.503906 204.261719 150.984375 203.941406 C 151.46875 203.621094 151.964844 203.320312 152.472656 203.046875 C 152.984375 202.777344 153.507812 202.527344 154.042969 202.304688 C 154.574219 202.085938 155.121094 201.890625 155.675781 201.722656 C 156.226562 201.554688 156.789062 201.410156 157.355469 201.296875 C 157.925781 201.183594 158.496094 201.101562 159.070312 201.042969 C 159.648438 200.984375 160.226562 200.957031 160.804688 200.957031 L 186.375 200.957031 C 186.953125 200.957031 187.53125 200.984375 188.105469 201.042969 C 188.683594 201.101562 189.253906 201.183594 189.820312 201.296875 C 190.390625 201.410156 190.949219 201.554688 191.503906 201.722656 C 192.058594 201.890625 192.601562 202.085938 193.136719 202.304688 C 193.671875 202.527344 194.195312 202.777344 194.703125 203.046875 C 195.214844 203.320312 195.710938 203.621094 196.191406 203.941406 C 196.671875 204.261719 197.136719 204.605469 197.585938 204.972656 C 198.03125 205.339844 198.460938 205.730469 198.871094 206.140625 C 199.277344 206.546875 199.667969 206.976562 200.035156 207.425781 C 200.402344 207.871094 200.746094 208.335938 201.066406 208.816406 C 201.390625 209.296875 201.6875 209.792969 201.960938 210.304688 C 202.234375 210.816406 202.480469 211.339844 202.703125 211.871094 C 202.925781 212.40625 203.121094 212.953125 203.289062 213.503906 C 203.457031 214.058594 203.597656 214.621094 203.710938 215.1875 C 203.824219 215.753906 203.910156 216.328125 203.964844 216.902344 C 204.023438 217.480469 204.054688 218.054688 204.054688 218.636719 L 204.054688 243.121094 C 204.054688 245.101562 203.785156 247.046875 203.25 248.957031 C 202.710938 250.863281 201.929688 252.664062 200.898438 254.355469 C 199.957031 255.898438 199.332031 257.554688 199.023438 259.332031 L 190.0625 310.664062 C 189.957031 311.292969 189.792969 311.90625 189.578125 312.507812 C 189.359375 313.105469 189.09375 313.679688 188.777344 314.234375 C 188.457031 314.785156 188.09375 315.304688 187.6875 315.792969 C 187.277344 316.28125 186.828125 316.730469 186.339844 317.140625 C 185.851562 317.550781 185.332031 317.914062 184.78125 318.234375 C 184.230469 318.550781 183.652344 318.820312 183.054688 319.035156 C 182.457031 319.253906 181.84375 319.417969 181.214844 319.527344 C 180.589844 319.636719 179.957031 319.6875 179.320312 319.6875 Z M 160.804688 208.277344 C 160.125 208.277344 159.449219 208.347656 158.785156 208.480469 C 158.117188 208.613281 157.46875 208.808594 156.84375 209.070312 C 156.214844 209.332031 155.617188 209.648438 155.054688 210.027344 C 154.488281 210.40625 153.964844 210.835938 153.484375 211.316406 C 153.003906 211.796875 152.574219 212.320312 152.195312 212.882812 C 151.820312 213.449219 151.5 214.046875 151.238281 214.675781 C 150.976562 215.300781 150.78125 215.949219 150.648438 216.617188 C 150.515625 217.28125 150.449219 217.957031 150.445312 218.636719 L 150.445312 243.121094 C 150.445312 245.792969 151.144531 248.269531 152.539062 250.550781 C 153.957031 252.878906 154.902344 255.386719 155.371094 258.074219 L 164.34375 309.40625 C 164.414062 309.820312 164.554688 310.210938 164.765625 310.574219 C 164.976562 310.941406 165.242188 311.257812 165.5625 311.527344 C 165.882812 311.800781 166.242188 312.007812 166.640625 312.152344 C 167.035156 312.292969 167.441406 312.367188 167.863281 312.363281 L 179.320312 312.363281 C 179.738281 312.363281 180.148438 312.292969 180.542969 312.148438 C 180.9375 312.003906 181.292969 311.796875 181.617188 311.527344 C 181.9375 311.257812 182.203125 310.9375 182.414062 310.574219 C 182.621094 310.210938 182.761719 309.820312 182.832031 309.40625 L 191.808594 258.074219 C 192.277344 255.386719 193.222656 252.878906 194.644531 250.550781 C 196.035156 248.269531 196.730469 245.792969 196.730469 243.121094 L 196.730469 218.636719 C 196.730469 217.957031 196.664062 217.28125 196.53125 216.617188 C 196.394531 215.949219 196.199219 215.300781 195.9375 214.675781 C 195.679688 214.046875 195.359375 213.449219 194.980469 212.882812 C 194.601562 212.320312 194.171875 211.796875 193.691406 211.316406 C 193.210938 210.835938 192.691406 210.40625 192.125 210.027344 C 191.558594 209.648438 190.960938 209.332031 190.335938 209.070312 C 189.707031 208.808594 189.058594 208.613281 188.394531 208.480469 C 187.726562 208.347656 187.054688 208.277344 186.375 208.277344 Z M 160.804688 208.277344 " fill-opacity="1" fill-rule="nonzero"/></g><path fill="#ffffff" d="M 173.589844 229.308594 C 172.890625 229.3125 172.246094 229.132812 171.652344 228.765625 C 171.058594 228.402344 170.605469 227.910156 170.292969 227.285156 L 159.78125 206.257812 C 159.566406 205.824219 159.441406 205.363281 159.40625 204.878906 C 159.371094 204.394531 159.429688 203.921875 159.582031 203.460938 C 159.738281 203 159.972656 202.585938 160.289062 202.21875 C 160.609375 201.851562 160.984375 201.5625 161.417969 201.34375 C 161.851562 201.125 162.3125 201 162.796875 200.964844 C 163.28125 200.929688 163.753906 200.992188 164.214844 201.144531 C 164.675781 201.296875 165.089844 201.535156 165.457031 201.851562 C 165.824219 202.171875 166.113281 202.546875 166.332031 202.980469 L 173.589844 217.464844 L 180.835938 202.980469 C 181.050781 202.546875 181.34375 202.171875 181.710938 201.851562 C 182.078125 201.535156 182.492188 201.296875 182.953125 201.144531 C 183.414062 200.992188 183.886719 200.929688 184.371094 200.964844 C 184.855469 201 185.3125 201.125 185.746094 201.34375 C 186.183594 201.5625 186.558594 201.851562 186.875 202.21875 C 187.195312 202.585938 187.429688 203 187.582031 203.460938 C 187.738281 203.921875 187.796875 204.394531 187.761719 204.878906 C 187.726562 205.363281 187.601562 205.824219 187.382812 206.257812 L 176.859375 227.277344 C 176.550781 227.898438 176.101562 228.390625 175.511719 228.757812 C 174.921875 229.121094 174.28125 229.304688 173.589844 229.308594 Z M 173.589844 229.308594 " fill-opacity="1" fill-rule="nonzero"/><path fill="#ffffff" d="M 172.230469 200.953125 C 171.625 200.953125 171.023438 200.921875 170.421875 200.863281 C 169.820312 200.804688 169.222656 200.714844 168.628906 200.597656 C 168.035156 200.476562 167.449219 200.332031 166.871094 200.15625 C 166.292969 199.980469 165.722656 199.773438 165.164062 199.542969 C 164.605469 199.3125 164.058594 199.054688 163.527344 198.769531 C 162.992188 198.484375 162.476562 198.171875 161.972656 197.835938 C 161.46875 197.5 160.984375 197.140625 160.515625 196.753906 C 160.050781 196.371094 159.601562 195.964844 159.175781 195.539062 C 158.746094 195.109375 158.339844 194.660156 157.957031 194.195312 C 157.574219 193.726562 157.214844 193.242188 156.878906 192.738281 C 156.542969 192.234375 156.234375 191.71875 155.949219 191.183594 C 155.664062 190.648438 155.40625 190.101562 155.171875 189.542969 C 154.941406 188.984375 154.738281 188.417969 154.5625 187.839844 C 154.386719 187.257812 154.242188 186.671875 154.125 186.078125 C 154.007812 185.488281 153.917969 184.890625 153.859375 184.285156 C 153.800781 183.683594 153.769531 183.082031 153.769531 182.476562 C 153.769531 181.871094 153.800781 181.269531 153.859375 180.667969 C 153.921875 180.066406 154.007812 179.46875 154.128906 178.875 C 154.246094 178.28125 154.394531 177.695312 154.570312 177.117188 C 154.746094 176.539062 154.949219 175.96875 155.179688 175.410156 C 155.410156 174.851562 155.671875 174.304688 155.957031 173.773438 C 156.242188 173.238281 156.550781 172.722656 156.886719 172.21875 C 157.222656 171.714844 157.585938 171.230469 157.96875 170.761719 C 158.351562 170.296875 158.757812 169.847656 159.1875 169.421875 C 159.613281 168.992188 160.0625 168.585938 160.53125 168.203125 C 160.996094 167.820312 161.484375 167.460938 161.984375 167.125 C 162.488281 166.789062 163.007812 166.480469 163.539062 166.195312 C 164.074219 165.910156 164.621094 165.652344 165.179688 165.421875 C 165.738281 165.1875 166.308594 164.984375 166.886719 164.8125 C 167.464844 164.636719 168.050781 164.488281 168.644531 164.371094 C 169.238281 164.253906 169.835938 164.164062 170.4375 164.105469 C 171.039062 164.046875 171.644531 164.019531 172.246094 164.019531 C 172.851562 164.019531 173.457031 164.046875 174.058594 164.109375 C 174.660156 164.167969 175.257812 164.257812 175.851562 164.375 C 176.445312 164.492188 177.03125 164.640625 177.609375 164.816406 C 178.1875 164.992188 178.753906 165.195312 179.3125 165.429688 C 179.871094 165.660156 180.417969 165.917969 180.953125 166.203125 C 181.484375 166.488281 182.003906 166.800781 182.507812 167.136719 C 183.007812 167.472656 183.492188 167.832031 183.960938 168.214844 C 184.429688 168.601562 184.875 169.007812 185.304688 169.433594 C 185.730469 169.863281 186.136719 170.308594 186.519531 170.777344 C 186.902344 171.246094 187.261719 171.730469 187.597656 172.234375 C 187.933594 172.738281 188.246094 173.253906 188.527344 173.789062 C 188.8125 174.324219 189.070312 174.871094 189.304688 175.429688 C 189.535156 175.988281 189.738281 176.554688 189.914062 177.136719 C 190.089844 177.714844 190.234375 178.300781 190.351562 178.894531 C 190.46875 179.488281 190.558594 180.085938 190.617188 180.6875 C 190.675781 181.289062 190.707031 181.890625 190.703125 182.496094 C 190.703125 183.101562 190.671875 183.703125 190.613281 184.304688 C 190.554688 184.90625 190.464844 185.503906 190.34375 186.097656 C 190.226562 186.691406 190.078125 187.277344 189.902344 187.855469 C 189.726562 188.433594 189.523438 189 189.292969 189.558594 C 189.058594 190.117188 188.800781 190.664062 188.515625 191.195312 C 188.230469 191.730469 187.917969 192.246094 187.582031 192.75 C 187.246094 193.25 186.886719 193.738281 186.503906 194.203125 C 186.117188 194.671875 185.714844 195.117188 185.285156 195.546875 C 184.859375 195.972656 184.410156 196.378906 183.941406 196.761719 C 183.476562 197.144531 182.988281 197.503906 182.488281 197.839844 C 181.984375 198.175781 181.464844 198.484375 180.933594 198.769531 C 180.398438 199.054688 179.855469 199.3125 179.296875 199.546875 C 178.738281 199.777344 178.167969 199.980469 177.589844 200.15625 C 177.011719 200.332031 176.425781 200.476562 175.832031 200.597656 C 175.238281 200.714844 174.640625 200.804688 174.039062 200.863281 C 173.4375 200.921875 172.835938 200.953125 172.230469 200.953125 Z M 172.230469 171.34375 C 171.5 171.34375 170.773438 171.417969 170.058594 171.558594 C 169.339844 171.703125 168.644531 171.914062 167.96875 172.195312 C 167.292969 172.476562 166.648438 172.820312 166.042969 173.226562 C 165.433594 173.632812 164.871094 174.09375 164.355469 174.613281 C 163.835938 175.128906 163.375 175.691406 162.96875 176.300781 C 162.5625 176.910156 162.21875 177.550781 161.941406 178.226562 C 161.660156 178.902344 161.449219 179.601562 161.308594 180.316406 C 161.164062 181.035156 161.09375 181.761719 161.09375 182.492188 C 161.09375 183.222656 161.164062 183.949219 161.308594 184.664062 C 161.449219 185.382812 161.664062 186.078125 161.941406 186.753906 C 162.222656 187.429688 162.566406 188.074219 162.972656 188.679688 C 163.378906 189.289062 163.839844 189.851562 164.359375 190.371094 C 164.875 190.886719 165.4375 191.347656 166.046875 191.753906 C 166.652344 192.160156 167.296875 192.503906 167.972656 192.785156 C 168.648438 193.066406 169.34375 193.277344 170.0625 193.417969 C 170.78125 193.5625 171.503906 193.632812 172.234375 193.632812 C 172.96875 193.632812 173.691406 193.5625 174.410156 193.421875 C 175.125 193.277344 175.824219 193.066406 176.5 192.785156 C 177.175781 192.507812 177.816406 192.164062 178.425781 191.757812 C 179.035156 191.351562 179.597656 190.890625 180.113281 190.371094 C 180.632812 189.855469 181.09375 189.292969 181.5 188.683594 C 181.90625 188.078125 182.25 187.433594 182.53125 186.757812 C 182.8125 186.082031 183.023438 185.386719 183.167969 184.667969 C 183.308594 183.953125 183.382812 183.226562 183.382812 182.496094 C 183.382812 181.765625 183.308594 181.039062 183.164062 180.320312 C 183.023438 179.605469 182.808594 178.90625 182.53125 178.230469 C 182.25 177.554688 181.90625 176.914062 181.5 176.304688 C 181.089844 175.695312 180.628906 175.132812 180.113281 174.613281 C 179.59375 174.097656 179.03125 173.636719 178.421875 173.226562 C 177.8125 172.820312 177.171875 172.476562 176.496094 172.195312 C 175.820312 171.917969 175.121094 171.703125 174.40625 171.5625 C 173.6875 171.417969 172.960938 171.34375 172.230469 171.34375 Z M 172.230469 171.34375 " fill-opacity="1" fill-rule="nonzero"/><g clip-path="url(#0b7ae823d1)"><path fill="#ffffff" d="M 173.589844 319.6875 C 173.101562 319.6875 172.636719 319.59375 172.1875 319.410156 C 171.738281 319.222656 171.34375 318.957031 171 318.613281 C 170.65625 318.269531 170.390625 317.875 170.207031 317.425781 C 170.019531 316.976562 169.925781 316.511719 169.929688 316.027344 L 169.929688 274.804688 C 169.925781 274.320312 170.019531 273.851562 170.207031 273.402344 C 170.390625 272.957031 170.65625 272.558594 171 272.214844 C 171.34375 271.871094 171.738281 271.609375 172.1875 271.421875 C 172.636719 271.238281 173.101562 271.144531 173.589844 271.144531 C 174.074219 271.144531 174.542969 271.238281 174.988281 271.421875 C 175.4375 271.609375 175.835938 271.871094 176.175781 272.214844 C 176.519531 272.558594 176.785156 272.957031 176.972656 273.402344 C 177.15625 273.851562 177.25 274.320312 177.25 274.804688 L 177.25 316.027344 C 177.25 316.511719 177.15625 316.976562 176.972656 317.425781 C 176.785156 317.875 176.519531 318.269531 176.175781 318.613281 C 175.835938 318.957031 175.4375 319.222656 174.988281 319.410156 C 174.542969 319.59375 174.074219 319.6875 173.589844 319.6875 Z M 173.589844 319.6875 " fill-opacity="1" fill-rule="nonzero"/></g></svg>