<svg xmlns="http://www.w3.org/2000/svg" xmlns:xlink="http://www.w3.org/1999/xlink" width="500" zoomAndPan="magnify" viewBox="0 0 375 374.999991" height="500" preserveAspectRatio="xMidYMid meet" version="1.0"><defs><g/><clipPath id="fb654e5f8d"><path d="M 187.5 0 C 83.945312 0 0 83.945312 0 187.5 C 0 291.054688 83.945312 375 187.5 375 C 291.054688 375 375 291.054688 375 187.5 C 375 83.945312 291.054688 0 187.5 0 Z M 187.5 0 " clip-rule="nonzero"/></clipPath><clipPath id="6aa895acc5"><path d="M 0 0 L 375 0 L 375 375 L 0 375 Z M 0 0 " clip-rule="nonzero"/></clipPath><clipPath id="b34972e200"><path d="M 187.5 0 C 83.945312 0 0 83.945312 0 187.5 C 0 291.054688 83.945312 375 187.5 375 C 291.054688 375 375 291.054688 375 187.5 C 375 83.945312 291.054688 0 187.5 0 Z M 187.5 0 " clip-rule="nonzero"/></clipPath><clipPath id="713dae289d"><rect x="0" width="375" y="0" height="375"/></clipPath><clipPath id="2c7095d290"><path d="M 207 59.25 L 270 59.25 L 270 101 L 207 101 Z M 207 59.25 " clip-rule="nonzero"/></clipPath><clipPath id="3c52e13df2"><path d="M 110 59.25 L 173 59.25 L 173 101 L 110 101 Z M 110 59.25 " clip-rule="nonzero"/></clipPath><clipPath id="5d796fdccb"><path d="M 59.25 110 L 315.75 110 L 315.75 315.75 L 59.25 315.75 Z M 59.25 110 " clip-rule="nonzero"/></clipPath><clipPath id="552450c3bc"><rect x="0" width="58" y="0" height="20"/></clipPath></defs><g clip-path="url(#fb654e5f8d)"><g transform="matrix(1, 0, 0, 1, 0, 0)"><g clip-path="url(#713dae289d)"><g clip-path="url(#6aa895acc5)"><g clip-path="url(#b34972e200)"><rect x="-82.5" width="540" fill="#ffffff" height="539.999987" y="-82.499998" fill-opacity="1"/></g></g></g></g></g><g clip-path="url(#2c7095d290)"><path fill="#000000" d="M 238.699219 100.71875 C 237.175781 100.71875 235.738281 100.042969 234.761719 98.875 L 209.160156 68.160156 C 207.890625 66.632812 207.617188 64.507812 208.460938 62.710938 C 209.304688 60.914062 211.113281 59.761719 213.097656 59.761719 L 264.296875 59.761719 C 266.28125 59.761719 268.089844 60.914062 268.929688 62.710938 C 269.773438 64.511719 269.5 66.636719 268.226562 68.160156 L 242.628906 98.875 C 241.65625 100.042969 240.21875 100.71875 238.699219 100.71875 Z M 238.699219 100.71875 " fill-opacity="1" fill-rule="nonzero"/></g><g clip-path="url(#3c52e13df2)"><path fill="#000000" d="M 167.019531 100.71875 L 115.824219 100.71875 C 113.835938 100.71875 112.03125 99.566406 111.183594 97.769531 C 110.34375 95.972656 110.617188 93.847656 111.890625 92.324219 L 137.488281 61.605469 C 139.4375 59.269531 143.410156 59.269531 145.355469 61.605469 L 170.953125 92.324219 C 172.226562 93.847656 172.5 95.972656 171.660156 97.769531 C 170.816406 99.566406 169.007812 100.71875 167.019531 100.71875 Z M 167.019531 100.71875 " fill-opacity="1" fill-rule="nonzero"/></g><g clip-path="url(#5d796fdccb)"><path fill="#000000" d="M 300.132812 110.960938 L 74.867188 110.960938 C 66.398438 110.960938 59.507812 117.851562 59.507812 126.320312 L 59.507812 300.390625 C 59.507812 308.859375 66.398438 315.75 79.984375 315.75 L 305.253906 315.75 C 308.601562 315.75 315.492188 308.859375 315.492188 300.390625 L 315.492188 126.320312 C 315.492188 117.851562 308.601562 110.960938 300.132812 110.960938 Z M 259.175781 131.4375 C 267.648438 131.4375 274.535156 138.328125 274.535156 146.796875 C 274.535156 155.265625 267.648438 162.15625 259.175781 162.15625 C 250.703125 162.15625 243.816406 155.265625 243.816406 146.796875 C 243.816406 138.328125 250.703125 131.4375 259.175781 131.4375 Z M 187.5 131.4375 C 195.972656 131.4375 202.859375 138.328125 202.859375 146.796875 C 202.859375 155.265625 195.972656 162.15625 187.5 162.15625 C 179.03125 162.15625 172.140625 155.265625 172.140625 146.796875 C 172.140625 138.328125 179.03125 131.4375 187.5 131.4375 Z M 115.824219 131.4375 C 124.285156 131.4375 131.183594 138.335938 131.183594 146.796875 C 131.183594 155.261719 124.285156 162.15625 115.824219 162.15625 C 107.359375 162.15625 100.464844 155.261719 100.464844 146.796875 C 100.464844 138.335938 107.359375 131.4375 115.824219 131.4375 Z M 141.421875 238.953125 C 141.421875 240.894531 140.328125 242.664062 138.589844 243.535156 L 131.183594 247.238281 L 131.183594 290.152344 C 131.183594 292.980469 128.890625 295.269531 126.0625 295.269531 L 105.582031 295.269531 C 102.757812 295.269531 100.464844 292.980469 100.464844 290.152344 L 100.464844 247.238281 L 93.054688 243.53125 C 91.320312 242.664062 90.222656 240.894531 90.222656 238.953125 L 90.222656 203.117188 C 90.222656 185.890625 98.601562 172.398438 115.824219 172.398438 C 133.046875 172.398438 141.421875 185.890625 141.421875 203.117188 Z M 213.097656 238.953125 C 213.097656 240.894531 212.003906 242.664062 210.265625 243.535156 L 202.859375 247.238281 L 202.859375 290.152344 C 202.859375 292.980469 200.570312 295.269531 197.738281 295.269531 L 177.261719 295.269531 C 174.433594 295.269531 172.140625 292.980469 172.140625 290.152344 L 172.140625 247.238281 L 164.730469 243.53125 C 162.996094 242.664062 161.902344 240.894531 161.902344 238.953125 L 161.902344 203.117188 C 161.902344 185.890625 170.277344 172.398438 187.5 172.398438 C 204.722656 172.398438 213.097656 185.890625 213.097656 203.117188 Z M 284.777344 238.953125 C 284.777344 240.894531 283.679688 242.664062 281.945312 243.535156 L 274.535156 247.238281 L 274.535156 290.152344 C 274.535156 292.980469 272.246094 295.269531 269.417969 295.269531 L 248.9375 295.269531 C 246.105469 295.269531 243.816406 292.980469 243.816406 290.152344 L 243.816406 247.238281 L 236.410156 243.53125 C 234.671875 242.664062 233.578125 240.894531 233.578125 238.953125 L 233.578125 203.117188 C 233.578125 185.890625 241.953125 172.398438 259.175781 172.398438 C 276.398438 172.398438 284.777344 185.890625 284.777344 203.117188 Z M 284.777344 238.953125 " fill-opacity="1" fill-rule="nonzero"/></g><g transform="matrix(1, 0, 0, 1, 12, 337)"><g clip-path="url(#552450c3bc)"><g fill="#ffffff" fill-opacity="1"><g transform="translate(0.316337, 15.424977)"><g><path d="M 8 -11.03125 L 9.328125 -11.03125 L 9.328125 0 L 8 0 L 8 -4.859375 L 2.21875 -4.859375 L 2.21875 0 L 0.90625 0 L 0.90625 -11.03125 L 2.21875 -11.03125 L 2.21875 -5.953125 L 8 -5.953125 Z M 8 -11.03125 "/></g></g></g><g fill="#ffffff" fill-opacity="1"><g transform="translate(10.538101, 15.424977)"><g><path d="M 7.984375 -4.03125 C 7.984375 -3.96875 7.984375 -3.90625 7.984375 -3.84375 C 7.984375 -3.78125 7.976562 -3.710938 7.96875 -3.640625 L 1.75 -3.640625 C 1.820312 -2.671875 2.097656 -1.960938 2.578125 -1.515625 C 3.066406 -1.078125 3.675781 -0.859375 4.40625 -0.859375 C 4.925781 -0.859375 5.347656 -0.929688 5.671875 -1.078125 C 6.003906 -1.234375 6.289062 -1.484375 6.53125 -1.828125 L 7.703125 -1.828125 C 7.378906 -1.148438 6.941406 -0.65625 6.390625 -0.34375 C 5.847656 -0.0390625 5.164062 0.109375 4.34375 0.109375 C 3.675781 0.109375 3.050781 -0.0351562 2.46875 -0.328125 C 1.882812 -0.628906 1.410156 -1.085938 1.046875 -1.703125 C 0.691406 -2.328125 0.515625 -3.117188 0.515625 -4.078125 C 0.515625 -5.046875 0.695312 -5.835938 1.0625 -6.453125 C 1.4375 -7.066406 1.914062 -7.519531 2.5 -7.8125 C 3.082031 -8.113281 3.691406 -8.265625 4.328125 -8.265625 C 4.992188 -8.265625 5.601562 -8.113281 6.15625 -7.8125 C 6.707031 -7.519531 7.148438 -7.0625 7.484375 -6.4375 C 7.816406 -5.8125 7.984375 -5.007812 7.984375 -4.03125 Z M 1.75 -4.5 L 6.765625 -4.5 C 6.753906 -5.414062 6.523438 -6.109375 6.078125 -6.578125 C 5.628906 -7.054688 5.046875 -7.296875 4.328125 -7.296875 C 3.648438 -7.296875 3.066406 -7.066406 2.578125 -6.609375 C 2.097656 -6.148438 1.820312 -5.445312 1.75 -4.5 Z M 1.75 -4.5 "/></g></g></g><g fill="#ffffff" fill-opacity="1"><g transform="translate(19.027362, 15.424977)"><g><path d="M 7.46875 -1.421875 C 7.46875 -1.203125 7.507812 -1.039062 7.59375 -0.9375 C 7.6875 -0.832031 7.84375 -0.785156 8.0625 -0.796875 L 8.0625 -0.03125 C 7.925781 0.03125 7.753906 0.0625 7.546875 0.0625 C 7.160156 0.0625 6.859375 -0.0234375 6.640625 -0.203125 C 6.421875 -0.378906 6.3125 -0.679688 6.3125 -1.109375 L 6.3125 -1.6875 C 6.257812 -1.582031 6.160156 -1.425781 6.015625 -1.21875 C 5.867188 -1.019531 5.671875 -0.816406 5.421875 -0.609375 C 5.179688 -0.410156 4.875 -0.238281 4.5 -0.09375 C 4.132812 0.0390625 3.703125 0.109375 3.203125 0.109375 C 2.429688 0.109375 1.789062 -0.09375 1.28125 -0.5 C 0.769531 -0.914062 0.515625 -1.523438 0.515625 -2.328125 C 0.515625 -3.054688 0.753906 -3.601562 1.234375 -3.96875 C 1.722656 -4.332031 2.445312 -4.585938 3.40625 -4.734375 C 3.726562 -4.785156 4.070312 -4.835938 4.4375 -4.890625 C 4.800781 -4.953125 5.140625 -5.019531 5.453125 -5.09375 C 5.765625 -5.164062 6.015625 -5.25 6.203125 -5.34375 L 6.203125 -5.453125 C 6.203125 -6.160156 6.035156 -6.644531 5.703125 -6.90625 C 5.367188 -7.175781 4.875 -7.3125 4.21875 -7.3125 C 3.601562 -7.3125 3.132812 -7.203125 2.8125 -6.984375 C 2.488281 -6.773438 2.289062 -6.472656 2.21875 -6.078125 L 1.03125 -6.078125 C 1.113281 -6.816406 1.429688 -7.363281 1.984375 -7.71875 C 2.535156 -8.082031 3.285156 -8.265625 4.234375 -8.265625 C 5.328125 -8.265625 6.140625 -8.023438 6.671875 -7.546875 C 7.203125 -7.078125 7.46875 -6.28125 7.46875 -5.15625 Z M 6.203125 -2.609375 L 6.203125 -4.53125 C 5.972656 -4.40625 5.609375 -4.296875 5.109375 -4.203125 C 4.617188 -4.109375 4.101562 -4.015625 3.5625 -3.921875 C 2.882812 -3.816406 2.414062 -3.640625 2.15625 -3.390625 C 1.90625 -3.140625 1.78125 -2.796875 1.78125 -2.359375 C 1.78125 -1.910156 1.925781 -1.539062 2.21875 -1.25 C 2.507812 -0.96875 2.929688 -0.828125 3.484375 -0.828125 C 3.898438 -0.828125 4.269531 -0.898438 4.59375 -1.046875 C 4.914062 -1.191406 5.1875 -1.363281 5.40625 -1.5625 C 5.625 -1.769531 5.796875 -1.96875 5.921875 -2.15625 C 6.054688 -2.351562 6.148438 -2.503906 6.203125 -2.609375 Z M 6.203125 -2.609375 "/></g></g></g><g fill="#ffffff" fill-opacity="1"><g transform="translate(27.374871, 15.424977)"><g><path d="M 4.140625 -8.265625 C 4.765625 -8.265625 5.316406 -8.117188 5.796875 -7.828125 C 6.285156 -7.546875 6.65625 -7.15625 6.90625 -6.65625 L 6.90625 -11.125 L 8.15625 -11.125 L 8.15625 0 L 6.90625 0 L 6.90625 -1.65625 C 6.695312 -1.175781 6.363281 -0.757812 5.90625 -0.40625 C 5.445312 -0.0625 4.867188 0.109375 4.171875 0.109375 C 3.734375 0.109375 3.296875 0.03125 2.859375 -0.125 C 2.429688 -0.289062 2.039062 -0.546875 1.6875 -0.890625 C 1.332031 -1.234375 1.046875 -1.671875 0.828125 -2.203125 C 0.617188 -2.734375 0.515625 -3.363281 0.515625 -4.09375 C 0.515625 -4.820312 0.617188 -5.445312 0.828125 -5.96875 C 1.046875 -6.488281 1.328125 -6.921875 1.671875 -7.265625 C 2.023438 -7.609375 2.414062 -7.859375 2.84375 -8.015625 C 3.28125 -8.179688 3.710938 -8.265625 4.140625 -8.265625 Z M 4.359375 -0.9375 C 4.816406 -0.9375 5.238281 -1.050781 5.625 -1.28125 C 6.019531 -1.519531 6.34375 -1.875 6.59375 -2.34375 C 6.84375 -2.8125 6.96875 -3.394531 6.96875 -4.09375 C 6.96875 -4.832031 6.84375 -5.425781 6.59375 -5.875 C 6.34375 -6.332031 6.019531 -6.671875 5.625 -6.890625 C 5.238281 -7.109375 4.816406 -7.21875 4.359375 -7.21875 C 3.910156 -7.21875 3.484375 -7.109375 3.078125 -6.890625 C 2.679688 -6.671875 2.359375 -6.332031 2.109375 -5.875 C 1.867188 -5.414062 1.75 -4.820312 1.75 -4.09375 C 1.75 -3.375 1.867188 -2.78125 2.109375 -2.3125 C 2.359375 -1.851562 2.679688 -1.507812 3.078125 -1.28125 C 3.484375 -1.050781 3.910156 -0.9375 4.359375 -0.9375 Z M 4.359375 -0.9375 "/></g></g></g><g fill="#ffffff" fill-opacity="1"><g transform="translate(36.446883, 15.424977)"><g><path d="M 0.90625 -11.171875 L 2.171875 -11.171875 L 2.171875 -10 L 0.90625 -10 Z M 0.90625 -8.1875 L 2.171875 -8.1875 L 2.171875 0 L 0.90625 0 Z M 0.90625 -8.1875 "/></g></g></g><g fill="#ffffff" fill-opacity="1"><g transform="translate(39.518139, 15.424977)"><g><path d="M 5.09375 -8.265625 C 5.632812 -8.265625 6.125 -8.160156 6.5625 -7.953125 C 7.007812 -7.753906 7.359375 -7.410156 7.609375 -6.921875 C 7.867188 -6.441406 8 -5.789062 8 -4.96875 L 8 0 L 6.734375 0 L 6.734375 -4.90625 C 6.734375 -5.769531 6.546875 -6.367188 6.171875 -6.703125 C 5.796875 -7.035156 5.296875 -7.203125 4.671875 -7.203125 C 4.160156 -7.203125 3.722656 -7.078125 3.359375 -6.828125 C 3.003906 -6.578125 2.726562 -6.285156 2.53125 -5.953125 C 2.34375 -5.628906 2.222656 -5.335938 2.171875 -5.078125 L 2.171875 0 L 0.90625 0 L 0.90625 -8.1875 L 2.171875 -8.1875 L 2.171875 -6.28125 C 2.210938 -6.425781 2.300781 -6.609375 2.4375 -6.828125 C 2.582031 -7.054688 2.78125 -7.28125 3.03125 -7.5 C 3.28125 -7.71875 3.570312 -7.898438 3.90625 -8.046875 C 4.25 -8.191406 4.644531 -8.265625 5.09375 -8.265625 Z M 5.09375 -8.265625 "/></g></g></g><g fill="#ffffff" fill-opacity="1"><g transform="translate(48.416898, 15.424977)"><g><path d="M 6.875 -8.203125 L 8.140625 -8.203125 L 8.140625 -0.046875 C 8.140625 0.671875 8.023438 1.253906 7.796875 1.703125 C 7.566406 2.160156 7.265625 2.519531 6.890625 2.78125 C 6.515625 3.039062 6.109375 3.21875 5.671875 3.3125 C 5.234375 3.414062 4.800781 3.46875 4.375 3.46875 C 3.613281 3.46875 2.925781 3.320312 2.3125 3.03125 C 1.707031 2.75 1.269531 2.367188 1 1.890625 L 1.8125 1.375 C 2.050781 1.675781 2.375 1.921875 2.78125 2.109375 C 3.195312 2.304688 3.691406 2.40625 4.265625 2.40625 C 5.078125 2.40625 5.710938 2.21875 6.171875 1.84375 C 6.640625 1.476562 6.875 0.847656 6.875 -0.046875 L 6.875 -1.65625 C 6.675781 -1.175781 6.347656 -0.765625 5.890625 -0.421875 C 5.429688 -0.078125 4.847656 0.09375 4.140625 0.09375 C 3.703125 0.09375 3.269531 0.015625 2.84375 -0.140625 C 2.414062 -0.304688 2.023438 -0.5625 1.671875 -0.90625 C 1.328125 -1.25 1.046875 -1.6875 0.828125 -2.21875 C 0.617188 -2.75 0.515625 -3.375 0.515625 -4.09375 C 0.515625 -4.820312 0.617188 -5.445312 0.828125 -5.96875 C 1.046875 -6.488281 1.328125 -6.921875 1.671875 -7.265625 C 2.023438 -7.609375 2.414062 -7.859375 2.84375 -8.015625 C 3.269531 -8.179688 3.695312 -8.265625 4.125 -8.265625 C 4.75 -8.265625 5.300781 -8.117188 5.78125 -7.828125 C 6.257812 -7.546875 6.625 -7.15625 6.875 -6.65625 Z M 4.359375 -0.953125 C 4.816406 -0.953125 5.238281 -1.066406 5.625 -1.296875 C 6.019531 -1.523438 6.335938 -1.875 6.578125 -2.34375 C 6.828125 -2.8125 6.953125 -3.394531 6.953125 -4.09375 C 6.953125 -4.832031 6.828125 -5.425781 6.578125 -5.875 C 6.335938 -6.332031 6.019531 -6.671875 5.625 -6.890625 C 5.238281 -7.117188 4.816406 -7.234375 4.359375 -7.234375 C 3.910156 -7.234375 3.484375 -7.117188 3.078125 -6.890625 C 2.679688 -6.671875 2.363281 -6.332031 2.125 -5.875 C 1.882812 -5.414062 1.765625 -4.820312 1.765625 -4.09375 C 1.765625 -3.375 1.882812 -2.78125 2.125 -2.3125 C 2.363281 -1.851562 2.679688 -1.507812 3.078125 -1.28125 C 3.484375 -1.0625 3.910156 -0.953125 4.359375 -0.953125 Z M 4.359375 -0.953125 "/></g></g></g></g></g></svg>